<svg xmlns="http://www.w3.org/2000/svg" width="1000" height="1000" viewBox="0 0 1000 1000">
<rect width="1000" height="1000" fill="#0D1B3E"/>
<rect x="28.0" y="28.0" width="944.0" height="944.0" rx="64" ry="64" fill="none" stroke="#C9A84C" stroke-width="5"/>
<g transform="translate(181.962,190.000) scale(0.698985)">
<g transform="translate(352.0000,11.0000)"><path d="M0 0 C8.73426 -0.76319 8.73426 -0.76319 11.58398 0.95508 C12.80871 2.24773 13.89424 3.60511 15 5 C15.88463 5.78547 16.79169 6.54635 17.71875 7.28125 C18.17637 7.64863 18.63398 8.01602 19.10547 8.39453 C19.33557 8.57693 19.33557 8.57693 20.5 9.5 C23.75372 12.07928 26.77821 14.71634 29.6875 17.69238 C31.1096 19.10919 32.58175 20.45103 34.07812 21.78906 C34.59891 22.2557 35.11969 22.72234 35.65625 23.20312 C36.73134 24.16227 37.80954 25.11793 38.89062 26.07031 C39.14844 26.30234 39.14844 26.30234 40.45312 27.47656 C40.9188 27.88987 41.38447 28.30317 41.86426 28.729 C43 30 43 30 44 33 C45.31574 33.70075 46.65188 34.36376 48 35 C49.7041 36.49292 49.7041 36.49292 51.39062 38.23047 C52.01413 38.86549 52.63763 39.50052 53.28003 40.15479 C53.93012 40.82558 54.58021 41.49638 55.25 42.1875 C59.85427 46.87664 64.45633 51.40068 69.48047 55.63672 C71.63042 57.56559 73.30406 59.66808 75 62 C78.43491 60.96953 81.42943 59.79822 84.56641 58.05859 C89.36019 55.6347 94.17464 54.71178 99.4375 53.8125 C100.3276 53.64814 101.2177 53.48379 102.13477 53.31445 C110.76469 51.75741 119.20111 50.843 127.97266 50.90234 C128.78118 50.90376 129.58969 50.90517 130.42271 50.90663 C132.96935 50.91217 135.51589 50.92471 138.0625 50.9375 C139.80404 50.94252 141.54557 50.94708 143.28711 50.95117 C147.52477 50.96211 151.76237 50.97933 156 51 C156.35395 57.77652 155.77268 63.10457 153.1875 69.375 C152.92646 70.05949 152.66543 70.74398 152.39648 71.44922 C150.97225 75.07135 149.42303 77.9206 147 81 C147.37077 80.96717 147.37077 80.96717 149.24707 80.80103 C166.82736 79.28399 184.4491 78.86285 202.0885 78.7139 C203.84241 78.6965 205.59626 78.67231 207.34998 78.64084 C218.1566 78.4569 226.83342 79.29935 237 83 C239.75305 83.71635 242.52868 84.29176 245.3125 84.875 C266.59488 89.59488 266.59488 89.59488 271 94 C271.14017 96.3381 271.04262 98.65608 271 101 C262.087 101.44814 254.30279 100.21186 245.64795 98.3418 C234.28262 95.98454 222.4535 96.71464 211 98 C212.89819 101.79637 214.81366 103.65445 218.35449 105.92871 C221.01735 107.66234 223.5387 109.57149 226.0625 111.5 C226.61615 111.92289 227.1698 112.34579 227.74023 112.78149 C232.61803 116.57526 237.14884 120.69133 241.5979 124.97656 C244.56724 127.80966 247.45621 129.89401 251 132 C252.63281 133.72656 252.63281 133.72656 254.125 135.625 C257.78391 139.98199 261.89352 143.3306 266.35156 146.82422 C268.57513 148.65096 270.59804 150.54486 272.60693 152.60083 C275.48409 155.49059 278.50948 158.22859 281.5 161 C288.75752 167.72578 288.75752 167.72578 291.78906 170.79297 C293.44246 172.44344 295.0303 173.89896 296.875 175.3125 C300.0328 177.88224 302.52706 180.87425 305.15234 183.97266 C306.96661 185.96336 308.85313 187.61156 310.9375 189.3125 C319.12956 196.30732 324.53078 206.11693 329.58496 215.49878 C330.51044 217.20676 331.46161 218.89874 332.41406 220.5918 C335.64937 226.48004 337.87549 231.10551 337 238 C333.13019 238.80087 329.93051 239.11966 326.36084 237.04932 C322.61882 234.40733 319.14176 231.43627 315.67627 228.44531 C313.32156 226.41503 310.91788 224.45473 308.5 222.5 C308.13391 222.19578 308.13391 222.19578 306.28125 220.65625 C301.37774 217.09617 296.30723 215.32953 290.5 213.9375 C289.81164 213.76831 289.12328 213.59912 288.41406 213.4248 C281.66947 211.82204 274.87869 210.81684 268 210 C275.32215 226.28196 275.32215 226.28196 279.375 232.25 C284.43643 239.82485 287.96219 248.22827 291.80518 256.46387 C293.44295 259.94021 295.14587 263.38086 296.875 266.8125 C297.18687 267.43214 297.49875 268.05177 297.82007 268.69019 C298.49386 270.02757 299.16811 271.36472 299.84277 272.70166 C302.76326 278.50196 305.65928 284.31458 308.56006 290.12476 C310.83032 294.66998 313.10371 299.21321 315.40625 303.74219 C318.47551 309.79103 321.3991 315.76733 323.8125 322.11328 C325.53981 326.31225 327.49007 330.39933 329.4375 334.5 C329.80931 335.28351 330.18113 336.06702 330.56421 336.87427 C330.93361 337.64795 331.303 338.42163 331.68359 339.21875 C331.87111 339.61171 331.87111 339.61171 332.82007 341.60034 C333.61533 343.21768 334.43993 344.82088 335.29126 346.40942 C338.61751 352.67599 340.48833 358.78636 342.0625 365.6875 C342.56806 367.80752 343.07457 369.92731 343.58203 372.04688 C343.8226 373.06588 344.06317 374.08488 344.31104 375.13477 C345.22169 378.92195 346.2222 382.68073 347.25 386.4375 C348.44738 390.85492 349.55608 395.27402 350.49609 399.75391 C351.12705 402.56631 351.88472 405.33946 352.625 408.125 C353.76191 412.59266 354.31296 416.40986 354 421 C349.37826 421.34881 349.37826 421.34881 347 421 C345.0625 419.125 345.0625 419.125 344 417 C344 416.34 344 415.68 344 415 C343.34 415 342.68 415 342 415 C339.8455 410.86186 337.69528 406.72154 335.54858 402.57935 C334.8215 401.17773 334.09335 399.77667 333.36401 398.37622 C320.09843 372.89787 320.09843 372.89787 316.125 361.125 C313.86608 354.81695 311.03304 349.05827 307.80688 343.19531 C304.0658 336.31658 300.81639 329.24229 297.5625 322.125 C293.87737 314.07801 290.13506 306.1092 285.9375 298.3125 C277.48603 282.60655 269.96887 266.41409 262.80469 250.08594 C258.8062 240.98667 254.55029 232.01402 250.05859 223.14844 C248.22247 219.42199 246.6599 215.58376 245.0625 211.75 C244 210 244 210 241.875 208.6875 C240 207 240 207 239.74219 205.25781 C239.74923 203.50312 239.86794 201.74973 240 200 C247.98322 195.40077 259.70959 196.86088 268.6875 196.75 C269.1682 196.73928 269.1682 196.73928 271.60083 196.68506 C278.83622 196.65157 285.47311 197.73656 292 201 C286.91442 194.18316 281.66684 187.88536 275 182.5625 C271.89165 180.05444 269.45287 177.10288 266.87891 174.0625 C264.31066 171.2433 261.4549 168.85315 258.50391 166.44531 C258.00762 165.96836 257.51133 165.49141 257 165 C257 164.34 257 163.68 257 163 C256.40703 162.73574 255.81406 162.47148 255.20312 162.19922 C252.91971 160.9563 251.52573 159.69598 249.75 157.8125 C247.24795 155.22472 244.68411 152.82648 241.9375 150.5 C239.32064 148.25626 237.05475 145.9817 234.875 143.3125 C233.04554 141.08641 231.37238 139.41771 228.9375 137.875 C226.37568 136.2398 224.47493 134.5694 222.37891 132.39453 C216.72435 126.6759 210.28572 121.80207 203.92407 116.90771 C200.73024 114.43435 197.83896 111.88413 195 109 C192.75 107.75 192.75 107.75 191 107 C191 104.69 191 102.38 191 100 C190.09766 100.04641 189.19531 100.09281 188.26562 100.14062 C177.5545 100.49845 167.26101 99.18999 156.70508 97.57227 C145.83961 95.91444 134.96004 94.83576 124 94 C123.47234 86.94261 125.22887 81.94102 128 75.5 C128.38156 74.58219 128.76313 73.66438 129.15625 72.71875 C130.09174 70.47358 131.03974 68.23465 132 66 C127.62446 66.7923 123.25039 67.59218 118.87744 68.39868 C117.39409 68.6712 115.91037 68.94176 114.42627 69.21021 C95.03096 72.72176 95.03096 72.72176 86.125 76.6875 C80.73199 78.6407 75.59644 79.59495 70 78 C66.1117 75.15233 63.27449 71.28163 60.3208 67.52344 C58.52657 65.45394 56.48448 63.81784 54.34814 62.11499 C52.63187 60.69553 51.27093 59.10656 49.875 57.375 C45.90583 52.70591 41.41872 48.69753 36.86719 44.61328 C33.14907 41.2596 29.67103 37.6881 26.17578 34.10547 C25.22138 33.13279 24.26695 32.16013 23.3125 31.1875 C22.82717 30.68541 22.34184 30.18332 21.8418 29.66602 C20.59875 28.40583 19.303 27.19809 18 26 C17.34 26 16.68 26 16 26 C14.92797 33.08073 14.7822 40.0988 14.68359 47.25 C14.66298 48.51653 14.64198 49.78305 14.62062 51.04956 C14.56585 54.35711 14.51625 57.66471 14.46777 60.97235 C14.41723 64.35792 14.36171 67.74341 14.30664 71.12891 C14.19961 77.75253 14.09805 84.37623 14 91 C10.79781 92.96746 7.99974 94.47906 4.36719 95.46484 C3.4874 95.70533 2.60762 95.94583 1.70117 96.1936 C0.76854 96.43909 -0.1641 96.68458 -1.125 96.9375 C-2.09115 97.1991 -3.0573 97.4607 -4.05273 97.73022 C-8.83213 98.9997 -13.60583 100.15963 -18.46094 101.10156 C-18.88625 101.1841 -18.88625 101.1841 -21.03857 101.60181 C-22.63329 101.90028 -24.23129 102.18183 -25.83252 102.44312 C-32.90522 103.74441 -36.95704 107.20994 -41.1875 112.9375 C-41.47883 113.32422 -41.47883 113.32422 -42.95312 115.28125 C-43.62859 116.17844 -44.30406 117.07563 -45 118 C-46.80215 120.32066 -48.61943 122.6293 -50.4375 124.9375 C-50.67505 125.23962 -50.67505 125.23962 -51.8772 126.76855 C-57.29044 133.64952 -62.75124 140.4879 -68.3125 147.25 C-71.7689 151.45351 -75.14751 155.71326 -78.5 160 C-83.24987 166.07171 -88.09697 172.05135 -93 178 C-94.87922 180.29272 -96.75556 182.58779 -98.62988 184.88452 C-100.46862 187.13598 -102.31605 189.37836 -104.17969 191.60938 C-109.12898 197.56262 -113.76987 203.67242 -118.28271 209.96191 C-118.5029 210.26726 -118.5029 210.26726 -119.61719 211.8125 C-120.00503 212.3552 -120.39288 212.89789 -120.79248 213.45703 C-122.08479 215.10835 -123.50437 216.53271 -125 218 C-126.03905 219.29813 -127.05815 220.61235 -128.0625 221.9375 C-130.97458 225.72567 -133.98672 229.40782 -137.0625 233.0625 C-139.79707 236.31606 -142.4842 239.57195 -145 243 C-147.89961 246.94805 -151.03063 250.68065 -154.18091 254.42871 C-156.89853 257.66556 -159.56255 260.93696 -162.1875 264.25 C-164.59409 267.28124 -167.05337 270.23262 -169.625 273.125 C-173.53535 277.54191 -177.07448 282.19682 -180.41406 287.05859 C-180.85492 287.69926 -181.29578 288.33992 -181.75 289 C-181.94336 289.28875 -181.94336 289.28875 -182.92188 290.75 C-183.27766 291.1625 -183.63344 291.575 -184 292 C-184.66 292 -185.32 292 -186 292 C-186.22559 292.71027 -186.45117 293.42055 -186.68359 294.15234 C-188.29367 297.63527 -190.40652 299.84453 -193.0625 302.5625 C-196.85047 306.55994 -200.37382 310.61626 -203.625 315.0625 C-206.55111 319.06418 -209.53968 322.98183 -212.6875 326.8125 C-213.06084 327.26843 -213.43419 327.72435 -213.81885 328.19409 C-216.41588 331.34434 -219.10627 334.3961 -221.90625 337.36719 C-224.91946 341.86548 -223.85638 346.69098 -222.9375 351.6875 C-222.8032 352.42428 -222.66889 353.16106 -222.53052 353.92017 C-220.27629 365.45165 -217.06544 380.01803 -209 389 C-206.69057 390.4988 -204.71815 390.79052 -202 391 C-201.04609 391.10441 -200.09219 391.20883 -199.10938 391.31641 C-196.40746 391.59006 -193.70915 391.81384 -191 392 C-190.68547 390.97262 -190.37094 389.94523 -190.04688 388.88672 C-188.72246 384.58328 -187.36706 380.29006 -186 376 C-185.83307 375.47277 -185.83307 375.47277 -184.98828 372.80469 C-182.96507 366.81187 -180.71014 360.41176 -176 356 C-173.18149 355.27757 -170.83403 355.41737 -168 356 C-167.91674 357.3322 -167.85982 358.66604 -167.8125 360 C-167.7777 360.7425 -167.74289 361.485 -167.70703 362.25 C-168.04625 365.43415 -169.04087 367.95487 -170.21362 370.91602 C-171.42662 374.1306 -172.22699 377.4065 -173 380.75 C-173.16734 381.46229 -173.33467 382.17458 -173.50708 382.90845 C-175.05166 389.7424 -176.09832 396.63645 -177.04883 403.5752 C-177.16033 404.3844 -177.27184 405.19361 -177.38672 406.02734 C-177.48171 406.74656 -177.57669 407.46578 -177.67456 408.20679 C-178 410 -178 410 -179 412 C-174.65852 412.14858 -170.31852 412.25731 -165.9751 412.32959 C-164.4986 412.35972 -163.02228 412.40064 -161.54639 412.45264 C-159.4211 412.52563 -157.29819 412.55948 -155.17188 412.58594 C-154.84315 412.60142 -154.84315 412.60142 -153.17963 412.67978 C-150.62836 412.68164 -148.62292 412.60216 -146.73076 410.77306 C-145.665 409.22667 -144.80821 407.69398 -144 406 C-143.82747 405.64023 -143.82747 405.64023 -142.95435 403.81958 C-142.69742 403.14306 -142.44049 402.46655 -142.17578 401.76953 C-141.8739 400.97982 -141.57202 400.19011 -141.26099 399.37646 C-140.94799 398.53036 -140.63499 397.68425 -140.3125 396.8125 C-139.97436 395.91483 -139.63623 395.01716 -139.28784 394.09229 C-137.30765 388.76264 -135.44193 383.40113 -133.65625 378.00391 C-133.46033 377.41175 -133.26441 376.81959 -133.06255 376.20949 C-132.10695 373.31131 -131.1625 370.41003 -130.23364 367.50317 C-123.70458 347.37654 -123.70458 347.37654 -118 344 C-116.03385 343.2964 -114.03817 342.67272 -112.02734 342.10938 C-105.38982 340.17857 -98.99409 337.78624 -92.5625 335.25 C-90.29028 334.36273 -88.01646 333.47963 -85.74219 332.59766 C-85.17636 332.37798 -84.61054 332.1583 -84.02757 331.93196 C-77.5404 329.42154 -71.00017 327.06039 -64.45581 324.70386 C-58.4207 322.5278 -52.42674 320.26929 -46.46094 317.91016 C-42.71588 316.52508 -39.38199 315.87143 -35.39014 315.73462 C-34.48174 315.70111 -33.57334 315.6676 -32.63742 315.63307 C-32.14939 315.61692 -32.14939 315.61692 -29.67969 315.53516 C-27.59635 315.45659 -25.51301 315.37781 -23.42969 315.29883 C-20.1583 315.17961 -16.88686 315.06291 -13.61523 314.95044 C-10.44891 314.83993 -7.28309 314.71935 -4.11719 314.59766 C-3.63523 314.58251 -3.63523 314.58251 -1.19626 314.50587 C7.49592 314.16221 16.10816 313.75786 23 308 C23.51111 307.58428 24.02223 307.16855 24.54883 306.74023 C26.67701 304.97763 28.76511 303.17103 30.85156 301.35938 C34.79083 298 34.79083 298 37 298 C37 297.34 37 296.68 37 296 C38.51172 294.66016 38.51172 294.66016 40.6875 293.0625 C52.97591 283.74427 63.21168 274.19516 72.10547 261.51562 C73.92424 259.10059 75.73769 257.00469 78 255 C78.66 255 79.32 255 80 255 C82.34381 246.44581 84.64969 237.88179 86.9375 229.3125 C87.11364 228.65313 87.28978 227.99377 87.47125 227.31442 C89.64985 219.15278 91.81214 210.98914 93.80835 202.78052 C96.57673 191.42327 96.57673 191.42327 98 190 C100.66684 189.85905 103.33051 189.95763 106 190 C106.30774 197.82292 105.35318 205.45545 104.35547 213.19531 C104.1831 214.55571 104.01093 215.91613 103.83894 217.27658 C103.47888 220.11281 103.11429 222.94841 102.74683 225.78369 C102.27868 229.40112 101.82525 233.02023 101.37561 236.64 C101.02498 239.44462 100.66485 242.24795 100.30209 245.05102 C100.13097 246.38453 99.96313 247.71847 99.79876 249.05283 C97.75119 265.59549 97.75119 265.59549 92.58203 270.11328 C91.72996 270.7359 90.87789 271.35852 90 272 C88.51718 273.69047 87.0807 275.42244 85.6875 277.1875 C84.90505 278.16388 84.12117 279.13913 83.33594 280.11328 C82.94632 280.59749 82.5567 281.08169 82.15527 281.58057 C77.90517 286.80248 73.58877 291.73236 68.28906 295.89844 C67 297 67 297 65.125 299.375 C62.71906 302.34704 60.04121 304.63704 57.14062 307.11328 C54.29147 309.62449 51.66071 312.31978 49.01562 315.04297 C47.02681 316.97397 44.93806 318.61473 42.75 320.3125 C37.99054 324.46082 36.75499 329.07865 35 335 C34.52929 336.41992 34.05228 337.83777 33.57031 339.25391 C31.34012 345.81196 29.17986 352.38264 27.15625 359.00781 C24.94049 366.25935 22.60219 373.46977 20.25519 380.67972 C19.4781 383.06729 18.70251 385.45534 17.92725 387.84351 C15.47645 395.39134 13.02101 402.93765 10.55989 410.48213 C9.24674 414.50843 7.93537 418.5353 6.625 422.5625 C6.37155 423.3412 6.1181 424.11991 5.85696 424.92221 C2.70939 434.60269 -0.39075 444.28946 -3.21436 454.07056 C-4.36995 458.05141 -5.6885 461.91288 -7.17212 465.78296 C-8.87948 470.35522 -10.39527 474.99502 -11.9375 479.625 C-12.11636 480.16161 -12.11636 480.16161 -13.02148 482.8772 C-15.12982 489.24796 -17.09096 495.61805 -18.86328 502.08984 C-20.78309 508.8872 -23.06538 515.58738 -25.27148 522.29663 C-25.60857 523.33312 -25.94566 524.3696 -26.29297 525.4375 C-26.59743 526.36434 -26.90189 527.29117 -27.21558 528.24609 C-28.05397 531.18948 -28.72309 533.94839 -29 537 C-27.26515 539.07321 -25.83178 540.48747 -23.75 542.125 C-22.74206 542.95764 -21.73679 543.79352 -20.73438 544.63281 C-20.25936 545.03017 -19.78434 545.42752 -19.29492 545.83691 C-17.5655 547.39026 -16.23275 549.03266 -15 551 C-15 551.66 -15 552.32 -15 553 C-11.58648 551.14695 -8.9863 549.11977 -6.30859 546.30859 C-4.98313 544.98313 -3.59668 543.84689 -2.125 542.6875 C0.32498 540.69377 2.33286 538.5338 4.375 536.125 C7.27469 532.72514 10.36151 529.86341 13.76562 526.98047 C16.45901 524.59315 18.97509 522.06298 21.5 519.5 C25.18463 515.77016 28.92792 512.19855 32.92578 508.80078 C34.93753 507.05424 36.87364 505.24072 38.81079 503.41235 C47.6872 495.11207 57.32433 488.82461 68 483.0625 C75.99732 478.7301 83.04669 473.84484 90 468 C90.28867 467.7587 90.28867 467.7587 91.74951 466.5376 C96.92451 462.19507 102.05043 457.7987 107.03516 453.23828 C107.49704 452.81619 107.95893 452.39411 108.43481 451.95923 C109.6653 450.82787 110.88765 449.68769 112.10938 448.54688 C114 447 114 447 116 447 C116 446.34 116 445.68 116 445 C117.39844 443.58984 117.39844 443.58984 119.375 441.9375 C122.62941 439.17183 125.83414 436.36692 129 433.5 C131.93678 430.84886 134.88603 428.2171 137.875 425.625 C141.79033 422.21487 145.61138 418.70696 149.43262 415.19238 C154.25558 410.75793 159.12309 406.3751 164 402 C165.66693 400.50029 167.33359 399.00029 169 397.5 C169.82629 396.7575 170.65258 396.015 171.50391 395.25 C173.16223 393.75517 174.81592 392.25519 176.46484 390.75 C181.69273 385.99287 187.03836 381.45764 192.55469 377.04297 C195 375 195 375 197.04297 372.80078 C200.01079 370.06991 202.15757 369.94925 206.09766 370.10547 C212.05966 371.94302 216.10634 376.96755 220.36084 381.34082 C222.87932 383.89006 225.53029 386.28469 228.1875 388.6875 C229.18653 389.6025 230.18524 390.51786 231.18359 391.43359 C233.69017 393.72331 236.21794 395.98848 238.75 398.25 C243.8745 402.84806 248.88719 407.5621 253.90308 412.27808 C258.10418 416.22687 262.32049 420.15769 266.5625 424.0625 C277.3716 434.01768 288.08598 444.07318 298.77734 454.15454 C303.75341 458.84137 308.75874 463.49477 313.80322 468.10791 C316.10995 470.22363 318.37758 472.35958 320.57812 474.58594 C322.8116 476.81221 325.11116 478.88091 327.5 480.9375 C330.08932 483.20368 332.39626 485.35734 334.4375 488.125 C340.45191 495.66314 350.72964 498.62992 359.5625 501.4375 C360.73964 501.82339 361.91656 502.20996 363.09326 502.59717 C369.02154 504.52771 374.97338 506.30397 381.00391 507.88672 C381.56074 508.03436 381.56074 508.03436 384.37866 508.78149 C386.47693 509.32669 388.58049 509.85206 390.6897 510.35327 C399.87402 512.71346 406.11375 517.73575 412.5625 524.5 C415.93769 527.96324 419.4284 531.17029 423.09766 534.31641 C425.61081 536.54057 427.93717 538.92441 430.28516 541.32031 C431.95842 542.95927 433.69311 544.44852 435.5 545.9375 C438.07823 548.09655 440.2626 550.37299 442.4375 552.9375 C445.36818 556.38498 448.51388 559.29349 451.96094 562.21484 C454.80346 564.70341 457.41185 567.40039 460.05859 570.09375 C461.8499 571.85262 463.69089 573.4642 465.625 575.0625 C467.98691 577.0352 469.98017 579.06338 471.9375 581.4375 C474.60359 584.65785 477.54022 587.27668 480.72266 589.97656 C483.97968 592.87045 487.00364 595.97881 490.05981 599.08179 C492.41136 601.45558 494.7572 603.72771 497.375 605.8125 C499.39901 607.49917 500.77522 608.85948 502.375 610.875 C504.24578 613.21054 506.21693 615.1281 508.5 617.0625 C513.00651 620.89218 517.12494 625.06768 521.25586 629.29321 C523.86928 631.94782 526.48852 634.4438 529.39844 636.77344 C529.8277 637.14082 529.8277 637.14082 532 639 C532 639.66 532 640.32 532 641 C532.66 641 533.32 641 534 641 C535.15355 642.08364 536.29121 643.18757 537.35938 644.35547 C539 646 539 646 541.32812 647.73828 C547.56934 652.7921 547.56934 652.7921 548.4043 657.07275 C548.78402 662.07637 548.46386 667.01204 548 672 C541.68485 672.49756 541.68485 672.49756 538.62891 670.27734 C537.94699 669.5052 537.26508 668.73305 536.5625 667.9375 C533.82224 664.97042 531.13067 662.12898 528.0625 659.5 C517.91857 650.77662 508.08 641.68025 498.30078 632.55078 C497.67849 631.97038 497.05619 631.38998 496.41504 630.79199 C495.21104 629.66797 494.00849 628.5424 492.80762 627.41504 C489.63819 624.4558 486.40516 621.68322 483 619 C481.66667 617.66667 480.33333 616.33333 479 615 C477.40502 613.69645 475.7983 612.41254 474.17188 611.14844 C473.78516 610.76945 473.39844 610.39047 473 610 C473 609.34 473 608.68 473 608 C472.41968 607.74187 471.83936 607.48373 471.24146 607.21777 C468.8133 605.89857 467.12668 604.42849 465.13672 602.51562 C464.77546 602.17145 464.77546 602.17145 462.94727 600.42969 C462.20154 599.71039 461.45582 598.99109 460.6875 598.25 C456.05266 593.80641 451.42399 589.40847 446.49438 585.29102 C445.00508 584.00438 443.62579 582.65658 442.25 581.25 C440 579 440 579 438.1875 577.8125 C437.79562 577.54437 437.40375 577.27625 437 577 C437 576.34 437 575.68 437 575 C436.34 575 435.68 575 435 575 C433.87646 573.91157 432.76154 572.81346 431.67969 571.68359 C429.57264 569.57165 427.35448 567.60714 425.125 565.625 C422.12517 562.95277 419.19072 560.24238 416.375 557.375 C413.43574 554.38778 410.3502 551.62936 407.17969 548.89062 C396.71413 539.81297 396.71413 539.81297 392.125 535.125 C388.60239 531.60239 386.08326 529.70925 381.08984 529.00781 C380.60121 528.93526 380.60121 528.93526 378.12842 528.56812 C377.07542 528.42189 376.02241 528.27566 374.9375 528.125 C372.68839 527.78788 370.43971 527.44793 368.19141 527.10547 C367.60907 527.01768 367.02674 526.92988 366.42676 526.83943 C360.31369 525.91179 354.22419 524.86363 348.14114 523.75702 C346.41162 523.44412 344.6803 523.14114 342.94897 522.83838 C331.56639 520.75634 324.33025 517.19545 316.8125 508.3125 C313.47468 504.39001 309.81098 501.01001 305.98584 497.57959 C300.79634 492.89183 295.88516 487.94165 290.98828 482.95093 C290.68535 482.64385 290.68535 482.64385 289.15234 481.08984 C288.61601 480.54191 288.07968 479.99398 287.5271 479.42944 C286 478 286 478 284.30298 476.93188 C283.873 476.62436 283.44301 476.31684 283 476 C283 475.34 283 474.68 283 474 C282.01 473.67 281.02 473.34 280 473 C277.45454 470.65035 275.28773 468.37703 273.1875 465.625 C271.26607 463.31929 269.39957 461.5586 267.125 459.625 C264.50366 457.39058 262.18458 455.16208 260 452.5 C257.90163 449.94916 255.71398 447.81532 253.1875 445.6875 C249.02695 442.16703 245.53791 438.24824 241.98047 434.13672 C240 432 240 432 238.23828 430.83203 C237.82965 430.55746 237.42102 430.28289 237 430 C237 429.34 237 428.68 237 428 C236.01 427.67 235.02 427.34 234 427 C231.25158 424.46856 228.84384 421.8415 226.5 418.9375 C224.93487 417.01755 223.59911 415.6835 221.625 414.125 C218.64169 411.70994 216.33325 409.01716 213.84766 406.10547 C211.04985 402.91727 208.03935 399.95621 205 397 C201.9618 398.32718 200.22225 399.64646 198.1875 402.25 C195.63546 405.35627 192.92765 407.91716 189.80859 410.44531 C187.41171 412.5057 185.21739 414.75125 183 417 C181.94867 418.05283 180.89655 419.10488 179.84375 420.15625 C179.2959 420.7041 178.74805 421.25195 178.18359 421.81641 C176.50781 423.49219 174.83203 425.16797 173.15625 426.84375 C172.62234 427.37782 172.08842 427.9119 171.53833 428.46216 C170.55705 429.44312 169.57518 430.42349 168.59253 431.40308 C166.80278 433.18812 165.02104 434.97811 163.26953 436.80078 C162.78871 437.29965 162.30789 437.79852 161.8125 438.3125 C161.32395 438.82426 160.83539 439.33602 160.33203 439.86328 C159 441 159 441 157 441 C156.88656 441.27844 156.88656 441.27844 156.3125 442.6875 C154.63472 445.64358 152.47099 447.71733 150 450 C149.20465 450.7425 148.4093 451.485 147.58984 452.25 C140.52791 458.75351 140.52791 458.75351 137.81641 460.01953 C135.4432 461.30055 135.176 462.59282 134 465 C132.33792 466.92323 130.51531 468.6728 128.6875 470.4375 C128.21377 470.90221 127.74004 471.36691 127.25195 471.8457 C126.30109 472.77835 125.34821 473.70894 124.39331 474.63745 C123.06222 475.93916 121.74809 477.25582 120.4375 478.57812 C113.40618 485.56437 105.86932 491.97889 98 498 C97.59362 498.33089 97.18725 498.66177 96.76855 499.00269 C94.19096 500.45623 91.43865 500.96417 88.57422 501.58594 C87.28964 501.87987 86.00513 502.17415 84.7207 502.46875 C82.70749 502.92315 80.69357 503.37366 78.67798 503.81738 C76.72407 504.25014 74.7742 504.69836 72.82422 505.14844 C72.23026 505.27463 71.6363 505.40083 71.02434 505.53085 C65.23205 506.88522 61.01701 509.82382 56.73047 513.89062 C56.16046 514.42712 55.59045 514.96361 55.00317 515.51636 C54.404 516.08846 53.80483 516.66056 53.1875 517.25 C52.54514 517.85626 51.90279 518.46252 51.24097 519.08716 C49.86824 520.38328 48.49728 521.68127 47.12793 522.98096 C43.53199 526.3929 39.92169 529.78959 36.3125 533.1875 C35.95527 533.52407 35.95527 533.52407 34.14746 535.22729 C23.72204 545.04037 13.20222 554.72286 2.1875 563.875 C1.71885 564.26897 1.25019 564.66294 0.76733 565.06885 C-1.51161 566.94495 -3.16136 568.05379 -6 569 C-6 569.66 -6 570.32 -6 571 C-7.64453 572.47266 -7.64453 572.47266 -9.8125 574.0625 C-10.5202 574.58973 -11.22789 575.11695 -11.95703 575.66016 C-14 577 -14 577 -17 578 C-17.33 578.66 -17.66 579.32 -18 580 C-20.97 580 -23.94 580 -27 580 C-27.70131 573.40771 -25.49602 569.50623 -22 564 C-22.72059 563.74605 -23.44117 563.49211 -24.18359 563.23047 C-28.11052 561.51482 -31.2149 558.9642 -34.59766 556.36328 C-37 555 -37 555 -39.08984 555.0625 C-41.49833 556.24458 -42.77796 557.63279 -44.5 559.6875 C-45.06719 560.35137 -45.63437 561.01523 -46.21875 561.69922 C-47.89926 563.86987 -49.40961 566.1106 -50.91504 568.40454 C-52.84941 571.24907 -54.98955 573.93 -57.125 576.625 C-57.60147 577.22893 -58.07794 577.83285 -58.56885 578.45508 C-63.66779 584.88982 -68.9239 591.19153 -74.23242 597.45386 C-77.20387 600.98101 -80.00761 604.6052 -82.75 608.3125 C-86.88198 613.88198 -86.88198 613.88198 -88 615 C-95.8493 615.63281 -102.68669 614.92723 -110.24609 612.65625 C-114.34376 611.67979 -117.70367 611.39926 -121.5625 613.1875 C-123.71816 614.79043 -125.55787 616.47139 -127.41797 618.40234 C-129.55475 620.56022 -131.76602 622.6315 -134 624.6875 C-134.825 625.45449 -135.65 626.22148 -136.5 627.01172 C-139 629 -139 629 -141.75 630.08203 C-142.4925 630.38496 -143.235 630.68789 -144 631 C-144.33 631.99 -144.66 632.98 -145 634 C-146.61586 635.46043 -148.21938 636.79661 -149.9375 638.125 C-153.81094 641.197 -157.54448 644.3443 -161.1875 647.6875 C-164.59743 650.7923 -168.07007 653.62148 -171.79297 656.33594 C-174.65996 658.4976 -177.42548 660.76897 -180.1875 663.0625 C-180.43718 663.26839 -180.43718 663.26839 -181.70068 664.3103 C-184.10854 666.32032 -186.40828 668.36971 -188.60547 670.60938 C-190.69475 672.69525 -192.75795 674.43696 -195.125 676.1875 C-199.35441 679.40553 -203.25367 682.88267 -207.10596 686.53589 C-209.15242 688.44832 -211.09844 690.05809 -213.51562 691.48438 C-215.93717 692.96167 -217.72109 694.61718 -219.67773 696.65674 C-222.05957 699.07639 -224.66527 701.23931 -227.25 703.4375 C-227.84337 703.94467 -228.43674 704.45183 -229.0481 704.97437 C-234.77131 709.84592 -240.57569 714.61864 -246.40137 719.36694 C-247.08747 719.92777 -247.77357 720.48859 -248.48047 721.06641 C-248.78416 721.31362 -248.78416 721.31362 -250.32104 722.5647 C-252 724 -252 724 -253.59497 725.68335 C-255 727 -255 727 -257 727 C-257 727.66 -257 728.32 -257 729 C-258.59369 730.46431 -260.17338 731.79839 -261.875 733.125 C-262.3352 733.49754 -262.79539 733.87008 -263.26953 734.25391 C-266.73987 737 -266.73987 737 -269 737 C-268.67 737.66 -268.34 738.32 -268 739 C-267.30665 738.67838 -266.61329 738.35676 -265.89893 738.02539 C-242.00264 726.94832 -242.00264 726.94832 -230.00757 721.66479 C-225.70702 719.7686 -221.44038 717.81295 -217.1875 715.8125 C-213.07321 713.89421 -208.94603 712.19586 -204.6875 710.625 C-199.77831 708.78332 -195.16078 706.64654 -190.5 704.25 C-183.63886 700.73151 -176.65485 697.63596 -169.55273 694.6377 C-162.16105 691.51329 -154.82588 688.2747 -147.5 685 C-138.30297 680.89054 -129.08223 676.84875 -119.79688 672.94141 C-116.18985 671.41421 -112.6413 669.84824 -109.15625 668.05859 C-103.96615 665.41681 -98.57383 663.26769 -93.1875 661.0625 C-86.24395 658.21375 -79.35795 655.30229 -72.56372 652.11108 C-67.36056 649.8561 -62.94819 648.70184 -57.27734 648.84375 C-56.95636 648.8478 -56.95636 648.8478 -55.33202 648.86829 C-53.22089 648.89944 -51.11071 648.9479 -49 649 C-48.26517 649.01644 -47.53035 649.03287 -46.77325 649.0498 C-41.36879 649.17309 -35.96575 649.33288 -30.5625 649.5 C-28.94467 649.54838 -27.32683 649.59656 -25.70898 649.64453 C-21.80592 649.7607 -17.90294 649.87956 -14 650 C-14.0966 649.2463 -14.1932 648.4926 -14.29272 647.71606 C-14 645 -14 645 -12.05298 643.18042 C-11.14991 642.64006 -10.24684 642.0997 -9.31641 641.54297 C-8.82403 641.24755 -8.33165 640.95212 -7.82436 640.64775 C-2.10861 637.31713 3.94475 634.79619 10.0625 632.3125 C11.18073 631.84924 12.29857 631.38505 13.41602 630.91992 C16.60403 629.5968 19.80116 628.29674 23 627 C23.46302 626.81047 23.46302 626.81047 25.80615 625.85132 C31.42296 623.57005 37.01354 621.67672 42.82422 619.94922 C44.81443 619.35436 46.79781 618.73556 48.76953 618.08203 C54.07493 616.34616 58.41521 615.68973 64 616 C64.74362 618.89187 64.89622 621.12907 64 624 C61.09971 626.50063 57.8302 628.23842 54.50488 630.09814 C52.16206 631.50216 50.1042 633.20204 48 634.9375 C44.58493 637.74736 41.10968 640.38233 37.5 642.9375 C31.31913 647.38247 24.9974 652.30792 20.17969 658.24219 C17.11311 660.71523 14.32552 660.51892 10.5625 660.375 C9.86036 660.36066 9.15823 660.34632 8.43481 660.33154 C-9.33464 659.78961 -9.33464 659.78961 -14 656 C-14 657.32 -14 658.64 -14 660 C-14.68925 660.18587 -15.37849 660.37173 -16.08862 660.56323 C-35.47998 665.8188 -53.92874 671.41059 -70.9375 682.5 C-77.25323 686.61158 -84.2379 689.69892 -91 693 C-88.48997 693 -86.87486 692.80176 -84.50781 692.17725 C-84.16059 692.08671 -84.16059 692.08671 -82.40343 691.62856 C-81.65155 691.42887 -80.89967 691.22918 -80.125 691.02344 C-78.49686 690.59858 -76.86868 690.17387 -75.24048 689.74927 C-74.81296 689.6371 -74.81296 689.6371 -72.64944 689.06949 C-59.99952 685.75361 -47.35483 682.53148 -34.5625 679.8125 C-24.9947 677.77534 -15.6716 675.24716 -6.31445 672.40039 C-0.01322 670.50704 6.22139 668.96746 12.74292 668.06177 C21.79042 666.69047 28.08826 662.67731 34.25 656.0625 C34.83523 655.45471 35.42047 654.84691 36.02344 654.2207 C37.16397 653.03542 38.29975 651.84556 39.43018 650.65063 C42.42151 647.50532 45.51923 644.46932 48.625 641.4375 C51 639 51 639 52.6875 636.6875 C53.12063 636.13063 53.55375 635.57375 54 635 C54.66 635 55.32 635 56 635 C56.33 634.01 56.66 633.02 57 632 C57.66 632 58.32 632 59 632 C59 631.34 59 630.68 59 630 C60.57422 628.48438 60.57422 628.48438 62.6875 626.75 C65.19414 624.62528 67.47491 622.58877 69.5 620 C71.94778 616.90763 74.81219 614.48802 77.80469 611.93359 C87.41709 603.46715 87.41709 603.46715 90.13281 599.23438 C90.41898 598.82703 90.70516 598.41969 91 598 C91.66 598 92.32 598 93 598 C93.11473 597.72672 93.11473 597.72672 93.69531 596.34375 C100.22636 584.61133 112.99587 577.91656 124.24561 571.56494 C129.01319 568.85619 133.72108 566.04655 138.4375 563.25 C138.90595 562.97354 138.90595 562.97354 141.27661 561.57446 C147.60447 557.83939 153.89032 554.04883 160.12793 550.16504 C163.37866 548.14202 166.63363 546.12584 169.88843 544.10938 C171.69839 542.98788 173.50784 541.86554 175.31665 540.74219 C177.87446 539.15604 180.43702 537.57778 183 536 C183.45065 535.71906 183.45065 535.71906 185.7312 534.29736 C186.61139 533.7558 187.49158 533.21423 188.39844 532.65625 C189.18783 532.16705 189.97722 531.67785 190.79053 531.17383 C193.56084 529.70204 195.76573 529.02209 198.89453 529.29688 C203.3312 530.77851 206.83549 533.90075 210.44336 536.78516 C213.1786 538.91981 216.03559 540.88244 218.875 542.875 C224.24113 546.67795 229.4849 550.61701 234.6499 554.68896 C237.6558 557.04178 240.71908 559.03706 244 561 C245.26309 562.23151 246.52584 563.46515 247.73047 564.75391 C249 566 249 566 251.8125 567.875 C254 570 254 570 254.3125 571.80469 C254.3125 573.75 254.3125 573.75 254 577 C245.38824 578.64033 239.64687 574.32291 232.65869 569.99561 C230.41881 568.65115 228.1039 567.50561 225.75 566.375 C222.3169 564.70637 219.0663 562.87132 215.8125 560.875 C206.18881 555.04657 206.18881 555.04657 201.0625 554.9375 C196.6565 556.46611 193.60214 559.08763 190 562 C187.92449 563.61437 185.83656 565.21246 183.75 566.8125 C183.19167 567.24305 182.63335 567.67359 182.05811 568.11719 C178.4171 570.92391 174.74968 573.69184 171.0625 576.4375 C166.14058 580.10622 161.31498 583.88721 156.50122 587.69629 C151.97158 591.26739 147.3746 594.74053 142.75 598.1875 C136.73163 602.67591 130.82801 607.26599 125 612 C123.33436 613.33461 121.66767 614.66793 120 616 C117.48674 618.00982 114.97432 620.02062 112.46484 622.03516 C108.46109 625.24682 104.44493 628.43501 100.375 631.5625 C96.63229 634.44764 93.10742 637.51742 89.62891 640.71484 C88 642 88 642 86 642 C86 642.66 86 643.32 86 644 C84.29738 645.35076 82.60268 646.58857 80.8125 647.8125 C76.82828 650.61373 73.34255 653.46083 70 657 C68.34511 658.35135 66.67992 659.68055 65 661 C63.93339 661.85001 62.867 662.70028 61.80078 663.55078 C48.37428 674.20533 36.1162 683.00778 19.3125 687.4375 C18.22816 687.73261 17.14381 688.02773 16.02661 688.33179 C7.80271 690.55839 -0.44825 692.68311 -8.69971 694.80493 C-14.69963 696.36022 -20.63827 698.0539 -26.5625 699.875 C-35.45748 702.60768 -44.42712 705.01473 -53.42447 707.38116 C-63.49959 710.03267 -73.52001 712.83852 -83.51776 715.76797 C-91.31258 718.0482 -99.106 720.14701 -107.14746 721.37012 C-112.40315 722.3337 -115.95542 724.80443 -120.21973 727.95142 C-123.23326 730.17188 -126.31161 732.26453 -129.42578 734.33984 C-129.9861 734.71444 -130.54642 735.08904 -131.12372 735.47499 C-132.27403 736.24365 -133.42477 737.01167 -134.57593 737.77905 C-136.30166 738.93027 -138.02489 740.08517 -139.74805 741.24023 C-145.96606 745.39549 -152.23258 749.44198 -158.6346 753.30907 C-161.84795 755.25617 -164.9441 757.31459 -168 759.5 C-171.7425 762.17322 -175.56911 764.61935 -179.5 767 C-184.25901 769.88435 -188.83253 772.9383 -193.36719 776.16797 C-198.16871 779.50909 -203.12553 782.61166 -208.05664 785.75684 C-211.48403 787.94933 -214.89775 790.1629 -218.3125 792.375 C-218.66647 792.60413 -218.66647 792.60413 -220.45776 793.76367 C-224.13008 796.14087 -227.80154 798.51938 -231.47266 800.89844 C-232.94009 801.84897 -234.40754 802.79949 -235.875 803.75 C-236.22998 803.98014 -236.22998 803.98014 -238.02637 805.14478 C-241.08422 807.12479 -244.14469 809.09889 -247.23047 811.03516 C-252.68661 814.45935 -257.92477 818.02998 -263 822 C-255.08039 819.50237 -247.7805 816.5138 -240.5 812.5 C-234.85212 809.39044 -229.36366 806.88611 -223.24268 804.88281 C-217.84275 803.06688 -212.88843 800.55135 -207.83105 797.94775 C-203.01226 795.47504 -198.17419 793.2988 -193.13672 791.30078 C-190.40532 790.16808 -187.72342 788.97248 -185.03516 787.74219 C-178.31407 784.67038 -171.53435 781.74095 -164.75 778.8125 C-162.75001 777.94789 -160.75017 777.08292 -158.75035 776.21793 C-157.41191 775.63902 -156.07342 775.06022 -154.73488 774.48154 C-148.79802 771.91443 -142.8674 769.33313 -136.9375 766.75 C-129.09966 763.33812 -121.24881 759.95804 -113.38867 756.5979 C-105.08655 753.04523 -96.80232 749.45168 -88.51941 745.85449 C-81.50622 742.80896 -74.48876 739.77461 -67.45312 736.78125 C-46.68047 727.93912 -46.68047 727.93912 -37.5 723.5625 C-36.8317 723.24563 -36.1634 722.92876 -35.47485 722.60229 C-30.46201 720.2243 -30.46201 720.2243 -28.31738 719.18311 C-21.17443 715.74494 -14.97764 713.75875 -7 715 C-4.79979 715.80507 -3.03639 716.80797 -1 718 C2.58279 718.47199 4.74695 717.30886 7.85156 715.58594 C8.78613 715.0716 9.7207 714.55727 10.68359 714.02734 C11.65426 713.48207 12.62492 712.9368 13.625 712.375 C14.09873 712.11396 14.09873 712.11396 16.49609 710.79297 C22.03536 707.72402 27.48809 704.53908 32.88281 701.22266 C34.69596 700.17558 36.41783 699.35174 38.375 698.625 C41.79895 697.26667 44.72477 695.25654 47.75 693.1875 C55.06475 688.19239 62.71344 684.10251 70.6875 680.25 C76.37347 677.44384 81.66071 674.15065 87.00439 670.74536 C91.62049 667.81839 96.3009 665.14236 101.14307 662.61133 C105.30324 660.42082 109.30611 658.02125 113.3125 655.5625 C119.09784 652.02668 125.00369 648.91 131.1001 645.94727 C134.84049 644.11827 138.46105 642.18956 142.0332 640.05103 C171.19286 622.62667 171.19286 622.62667 185 626 C188.09923 627.28455 190.69533 628.97695 193.41943 630.9209 C196.07433 632.73348 198.84768 634.34883 201.60449 636.00049 C207.9537 639.80923 214.16194 643.71328 220.16797 648.04688 C225.08376 651.43707 230.16585 654.56944 235.22632 657.73804 C236.78232 658.71251 238.33575 659.69109 239.88623 660.67432 C241.21077 661.50502 242.54697 662.31772 243.89893 663.10303 C247.85802 665.48128 247.85802 665.48128 248.58594 668.14062 C248.39062 670.09375 248.19531 672.04688 248 674 C240.5425 674.86541 235.0243 672.76837 228.29343 669.69827 C225.44325 668.39864 222.56985 667.15206 219.69922 665.89844 C219.12859 665.64754 218.55797 665.39664 217.97005 665.13814 C212.14916 662.59307 206.21726 660.39548 200.22705 658.28296 C195.72795 656.68538 191.39176 654.88148 187.06274 652.86499 C185.05596 652.02347 183.12175 651.46815 181 651 C180.7525 651.7425 180.505 652.485 180.25 653.25 C177.61437 659.04839 173.34278 661.02301 167.75 663.3125 C166.30984 663.92305 164.86974 664.53374 163.42969 665.14453 C163.06214 665.29833 163.06214 665.29833 161.20215 666.07666 C157.74832 667.52482 154.30944 669.00651 150.875 670.5 C150.20936 670.78923 149.54372 671.07847 148.85791 671.37646 C143.95989 673.5269 139.18644 675.87205 134.4248 678.30688 C129.72935 680.68694 124.94774 682.82915 120.125 684.9375 C114.33087 687.47236 108.63447 690.12769 103 693 C97.04525 696.02576 91.02528 698.82165 84.91064 701.50781 C77.43486 704.79497 69.98815 708.14456 62.54977 711.51535 C61.12791 712.15911 59.70551 712.80168 58.2825 713.4429 C49.94366 717.20114 41.688 721.07713 33.54245 725.24036 C28.59939 727.75486 23.56612 729.98787 18.43655 732.09387 C14.21978 733.83736 14.21978 733.83736 12.4375 735.15625 C10.25165 736.43925 8.31175 736.18992 5.8125 736.125 C4.91145 736.10695 4.01039 736.08891 3.08203 736.07031 C2.7385 736.05871 2.7385 736.05871 1 736 C0.97938 736.59812 0.95875 737.19625 0.9375 737.8125 C0 740 0 740 -3.10938 741.57812 C-4.4012 742.06568 -5.69831 742.53944 -7 743 C-8.17228 743.45207 -9.34416 743.90519 -10.51562 744.35938 C-11.75975 744.82471 -13.00457 745.28817 -14.25 745.75 C-14.93401 746.00531 -15.61802 746.26063 -16.32275 746.52368 C-20.08863 747.92688 -23.85928 749.31675 -27.63281 750.69922 C-29.21357 751.27856 -30.7943 751.85799 -32.375 752.4375 C-33.17269 752.72979 -33.97038 753.02209 -34.79224 753.32324 C-40.20189 755.31418 -45.57475 757.38642 -50.9375 759.5 C-56.91428 761.85102 -62.92435 764.0438 -69 766.125 C-79.95296 769.88613 -90.74119 774.06818 -101.5481 778.22534 C-109.97574 781.46649 -118.41721 784.65645 -126.90283 787.74341 C-132.25367 789.69912 -137.53457 791.80327 -142.81128 793.94971 C-146.33955 795.37282 -149.87357 796.65413 -153.5 797.8125 C-159.31174 799.68776 -164.95215 801.92988 -170.625 804.1875 C-180.0638 807.93318 -189.58617 811.33628 -199.19751 814.6106 C-207.86461 817.57441 -216.43927 820.73104 -224.9978 823.99414 C-229.06293 825.54086 -233.11827 827.06207 -237.25781 828.39844 C-243.19154 830.34149 -248.9759 832.67466 -254.78595 834.95502 C-264.50928 838.76932 -274.23231 842.5175 -284.125 845.875 C-290.50987 848.04622 -296.5027 850.51574 -302.57422 853.46094 C-307.65813 855.83642 -312.99572 857.62422 -318.29126 859.46484 C-322.00442 860.78065 -325.39233 862.14031 -328.76172 864.19531 C-331.58987 865.89564 -333.57514 866.45691 -336.9375 866.25 C-337.70965 866.21391 -338.4818 866.17781 -339.27734 866.14062 C-339.56158 866.11742 -339.56158 866.11742 -341 866 C-341.54918 863.18014 -341.69079 860.80471 -341 858 C-338.53366 855.42415 -335.54925 853.88538 -332.4375 852.1875 C-330.68608 851.16089 -328.93741 850.12956 -327.19141 849.09375 C-326.75321 848.83723 -326.75321 848.83723 -324.53564 847.53906 C-320.82837 845.28886 -317.34533 842.78394 -313.875 840.1875 C-313.26108 839.73045 -312.64717 839.27339 -312.01465 838.80249 C-307.991 835.78586 -304.02517 832.69704 -300.07422 829.58594 C-297.92627 827.94363 -295.72875 826.40564 -293.5 824.875 C-288.73841 821.58423 -284.15 818.09108 -279.5625 814.5625 C-273.11175 809.60292 -266.61867 804.73432 -260 800 C-258.80983 799.14463 -257.61973 798.28915 -256.42969 797.43359 C-255.18248 796.5388 -253.93509 795.64426 -252.6875 794.75 C-252.11234 794.33726 -251.53717 793.92452 -250.94458 793.49927 C-248.30927 791.61636 -245.66309 789.76438 -242.95703 787.98438 C-239.87482 785.94616 -236.9368 783.74084 -234 781.5 C-231.11015 779.29498 -228.22935 777.15035 -225.1875 775.15625 C-221.76686 772.90994 -218.58985 770.37316 -215.37354 767.84668 C-211.53595 764.86093 -207.61047 761.99706 -203.6875 759.125 C-198.27301 755.14939 -192.86422 751.16824 -187.5 747.125 C-183.94161 744.44394 -180.35998 741.79886 -176.75 739.1875 C-167.7636 732.67561 -158.84525 726.05238 -150.125 719.1875 C-144.60967 714.86009 -138.84643 710.86619 -133 707 C-142.55617 709.71111 -142.55617 709.71111 -146.3125 711.4375 C-150.08496 713.14176 -154.00792 714.26752 -157.96899 715.45117 C-161.44725 716.49875 -164.85269 717.65315 -168.25 718.9375 C-172.64061 720.57063 -177.06032 721.9101 -181.5625 723.1875 C-192.5745 726.3285 -203.33629 730.21172 -214.13599 734.00439 C-216.61957 734.86775 -219.10849 735.70768 -221.60547 736.53125 C-226.70808 738.21979 -231.7613 740.03912 -236.8125 741.875 C-237.30029 742.05221 -237.30029 742.05221 -239.7688 742.94897 C-245.55928 745.06721 -251.25539 747.29989 -256.91797 749.73828 C-260.9016 751.3691 -264.94857 752.79773 -269 754.25 C-276.87986 757.08226 -284.44589 760.40896 -292.04053 763.92676 C-297.3365 766.34639 -302.41173 768.27017 -308.10156 769.5625 C-310 770 -310 770 -312 771 C-313.54024 771.06951 -315.08335 771.08452 -316.625 771.0625 C-317.44227 771.05348 -318.25953 771.04445 -319.10156 771.03516 C-319.4148 771.02936 -319.4148 771.02936 -321 771 C-321.33883 768.34744 -321.5638 766.56247 -321 764 C-319.13557 761.91627 -316.87305 760.70898 -314.4375 759.375 C-313.14359 758.61488 -311.85061 757.85317 -310.55859 757.08984 C-309.93839 756.73261 -309.31819 756.37538 -308.6792 756.00732 C-306.66057 754.79638 -304.83638 753.40743 -303 751.9375 C-300.03338 749.7333 -297.70684 749.54795 -294 750 C-294.13406 749.3168 -294.26812 748.63359 -294.40625 747.92969 C-293.77165 743.35327 -290.77133 741.20046 -287.5 738.125 C-286.85579 737.5015 -286.21158 736.87799 -285.54785 736.2356 C-281.76545 732.59754 -277.92457 729.03217 -273.92188 725.63672 C-271.57269 723.63609 -269.28833 721.5699 -267 719.5 C-263.43863 716.28503 -259.84405 713.11508 -256.21875 709.97266 C-254.42417 708.37712 -252.66059 706.76021 -250.90625 705.12109 C-250.36468 704.61691 -249.82312 704.11272 -249.26514 703.59326 C-248.18465 702.58483 -247.10804 701.57222 -246.03564 700.55518 C-242.22164 697 -242.22164 697 -240 697 C-239.76539 696.42895 -239.53078 695.85789 -239.28906 695.26953 C-237.69928 692.47055 -235.80016 690.80107 -233.375 688.6875 C-232.92915 688.29506 -232.48329 687.90262 -232.02393 687.49829 C-229.97549 685.69887 -227.90859 683.92118 -225.84375 682.14062 C-222.44039 679.19645 -219.16158 676.20463 -216 673 C-212.82705 669.78384 -209.53835 666.78062 -206.11719 663.83203 C-199.44415 658.05776 -192.96489 652.06023 -186.46631 646.09131 C-181.6746 641.6934 -176.84136 637.34321 -172 633 C-169.50853 630.75846 -167.01784 628.51606 -164.52734 626.27344 C-162.77105 624.69358 -161.0134 623.11534 -159.25391 621.53906 C-158.80338 621.13494 -158.35285 620.73082 -157.88867 620.31445 C-156.63592 619.19085 -155.38243 618.06805 -154.12891 616.94531 C-152 615 -152 615 -150.33984 613.24219 C-149 612 -149 612 -147 612 C-146.75895 611.4109 -146.51789 610.8218 -146.26953 610.21484 C-144.75619 607.57465 -143.14052 606.34764 -140.6875 604.5625 C-138.00357 602.55494 -135.45676 600.5977 -133.125 598.1875 C-129.12722 594.07213 -129.12722 594.07213 -125.44385 593.83643 C-124.44402 593.87236 -123.44419 593.90829 -122.41406 593.94531 C-121.31836 593.9698 -120.22266 593.9943 -119.09375 594.01953 C-116.7888 594.08961 -114.48409 594.16769 -112.17969 594.25391 C-103.75143 594.42208 -103.75143 594.42208 -99.96094 592.29297 C-99.31383 591.53629 -98.66672 590.77961 -98 590 C-97.34 589.25105 -96.68 588.50211 -96 587.73047 C-95.34 586.89129 -94.68 586.05211 -94 585.1875 C-90.34434 580.60204 -86.55358 576.15913 -82.6875 571.75 C-78.10935 566.50942 -73.65648 561.18645 -69.3125 555.75 C-69.05996 555.43402 -69.05996 555.43402 -67.78198 553.83496 C-64.17392 549.28748 -64.17392 549.28748 -62.97729 547.30957 C-62.65479 546.87741 -62.33228 546.44525 -62 546 C-61.34 546 -60.68 546 -60 546 C-59.74734 545.43926 -59.49469 544.87852 -59.23438 544.30078 C-57.82339 541.67081 -56.10384 539.52636 -54.25 537.1875 C-45.90778 526.086 -42.65907 512.18269 -39 499 C-38.46135 497.07302 -37.92115 495.14651 -37.37744 493.22095 C-36.91066 491.56407 -36.45112 489.90516 -35.99219 488.24609 C-35.29785 485.97446 -34.57155 483.81808 -33.72266 481.60938 C-31.3812 475.47989 -29.36279 469.23678 -27.2937 463.01147 C-26.56977 460.83437 -25.84268 458.65835 -25.11523 456.48242 C-22.96548 450.03444 -20.85663 443.58437 -18.90234 437.07422 C-17.75139 433.27291 -16.48593 429.60426 -14.96094 425.9375 C-12.68098 420.42111 -11.1616 414.76002 -9.625 409 C-6.95056 399.20629 -4.0018 389.56673 -0.67969 379.9751 C0.28351 377.17614 1.21431 374.3667 2.14746 371.55762 C2.9553 369.13411 3.76967 366.71287 4.58624 364.2923 C5.36173 361.99208 6.13433 359.6909 6.90674 357.38965 C7.30116 356.21643 7.69667 355.04358 8.09326 353.87109 C10.64944 346.3104 13.00202 338.7314 15 331 C-10.5991 332.51318 -33.05998 335.66649 -56.88306 345.69727 C-60.89746 347.3751 -64.93757 348.98365 -68.98145 350.58887 C-72.74082 352.08189 -76.49426 353.58945 -80.24728 355.09836 C-83.71342 356.48999 -87.18874 357.85636 -90.66797 359.21484 C-92.36233 359.89236 -94.05636 360.5707 -95.75 361.25 C-96.51707 361.54238 -97.28415 361.83475 -98.07446 362.13599 C-103.0134 364.1474 -106.39806 366.25 -109 371 C-110.48775 374.65526 -111.71735 378.36683 -112.87991 382.13437 C-113.82419 385.18797 -114.81793 388.22554 -115.80469 391.26562 C-115.9961 391.85929 -116.18751 392.45296 -116.38472 393.06462 C-119.59439 402.9867 -123.59107 412.39675 -128.1875 421.75 C-128.5208 422.43087 -128.85411 423.11173 -129.19751 423.81323 C-129.51776 424.44721 -129.83801 425.08119 -130.16797 425.73438 C-130.3086 426.01394 -130.3086 426.01394 -131.02026 427.42871 C-132.24961 429.40032 -133.08909 430.62879 -135 432 C-137.45227 432.25257 -139.62585 432.32501 -142.07031 432.24609 C-142.77463 432.23421 -143.47896 432.22232 -144.20462 432.21007 C-151.68041 432.05338 -159.14858 431.65594 -166.61133 431.20044 C-168.89425 431.06133 -171.17752 430.92955 -173.46094 430.79883 C-195.48439 429.51561 -195.48439 429.51561 -197 428 C-197.34295 421.60505 -197.14544 415.29992 -196 409 C-199.40606 408.26259 -202.72132 407.79607 -206.19531 407.53516 C-207.15824 407.45717 -208.12117 407.37918 -209.11328 407.29883 C-211.12856 407.14069 -213.1442 406.98708 -215.16016 406.83789 C-216.12051 406.75861 -217.08086 406.67934 -218.07031 406.59766 C-218.94446 406.53071 -219.8186 406.46375 -220.71924 406.39478 C-223.09519 405.98352 -224.23843 405.62416 -226 404 C-226.948 402.28955 -226.948 402.28955 -227.76172 400.19531 C-228.07206 399.39811 -228.3824 398.6009 -228.70215 397.77954 C-229.02731 396.90354 -229.35248 396.02754 -229.6875 395.125 C-230.032 394.20969 -230.3765 393.29437 -230.73145 392.35132 C-234.80437 381.23017 -237.93194 369.83644 -241.05176 358.41968 C-241.71141 356.01919 -242.39612 353.62739 -243.09668 351.23853 C-243.27874 350.61482 -243.4608 349.99111 -243.64838 349.3485 C-243.99633 348.16051 -244.34754 346.97347 -244.7027 345.78761 C-246.57761 339.36824 -247.83069 333.50535 -244.625 327.36719 C-242.56387 324.42148 -240.35468 321.71201 -238 319 C-237.04912 317.88442 -236.09861 316.76853 -235.14844 315.65234 C-233.63111 313.87755 -232.10948 312.10717 -230.57642 310.34595 C-226.67702 305.85657 -223.02977 301.22001 -219.44238 296.47974 C-216.67039 292.8304 -213.76115 289.36058 -210.70312 285.94531 C-208.06285 282.92958 -205.59539 279.78072 -203.10547 276.64062 C-200.90809 273.88472 -198.67716 271.15899 -196.4375 268.4375 C-193.74445 265.16052 -191.09179 261.85795 -188.5 258.5 C-183.18181 251.62051 -177.64927 244.92219 -172.00684 238.30762 C-167.7249 233.28731 -163.55047 228.2093 -159.5 223 C-153.04546 214.70279 -146.27334 206.68882 -139.3125 198.8125 C-136.15643 195.23115 -133.19903 191.50983 -130.23438 187.76953 C-127.71951 184.62595 -125.11021 181.56447 -122.5 178.5 C-118.66268 173.98987 -114.90654 169.42998 -111.22266 164.79297 C-97.59121 147.6367 -97.59121 147.6367 -91.3125 140.8125 C-87.58716 136.75527 -84.25976 132.49738 -80.94727 128.10571 C-77.23552 123.22082 -73.27334 118.58245 -69.25073 113.95239 C-66.56193 110.84952 -63.96776 107.72185 -61.5 104.4375 C-58.48413 100.5294 -55.32393 96.7666 -52.0625 93.0625 C-51.58426 92.49394 -51.10602 91.92539 -50.61328 91.3396 C-46.75959 87.05146 -43.614 85.87249 -38 85 C-37.4389 84.90199 -37.4389 84.90199 -34.59937 84.40601 C-30.63373 83.71834 -26.66133 83.07582 -22.6875 82.4375 C-20.63195 82.10627 -18.57658 81.77402 -16.52168 81.43874 C-15.25107 81.23149 -13.98008 81.02658 -12.70866 80.82433 C-10.02701 80.3876 -7.58601 79.862 -5 79 C-4.99635 78.46749 -4.99271 77.93498 -4.98895 77.38634 C-4.79347 51.34911 -4.33555 25.71801 0 0 Z " fill="#C9A84C"/></g>
<g transform="translate(559.0000,475.0000)"><path d="M0 0 C4.24759 2.98367 7.83799 6.7738 11.46582 10.46191 C13.5029 12.50418 15.64615 14.40874 17.8125 16.3125 C26.59696 24.19018 35.13739 32.33934 43.70312 40.45312 C44.08819 40.81724 44.08819 40.81724 46.03687 42.65991 C47.52781 44.07024 49.01697 45.48244 50.50415 46.89673 C51.17954 47.53538 51.85493 48.17403 52.55078 48.83203 C52.84811 49.11422 52.84811 49.11422 54.35278 50.54224 C56 52 56 52 57.71558 53.073 C58.13944 53.37891 58.5633 53.68482 59 54 C59 54.66 59 55.32 59 56 C59.57492 56.27199 60.14984 56.54398 60.74219 56.82422 C63.74602 58.3885 66.42905 60.32271 69.19531 62.26953 C72.47913 64.29562 75.87752 65.96073 79.3374 67.66382 C83.54489 69.77528 87.64054 72.08024 91.75 74.375 C97.47008 77.54554 103.19331 80.67602 109.0625 83.5625 C122.52563 90.18527 135.70114 97.36329 148.87537 104.53873 C155.28024 108.02487 161.7108 111.41361 168.26343 114.6123 C172.82444 116.85897 177.20212 119.37778 181.59204 121.93945 C186.81063 124.95623 192.1673 127.65592 197.5835 130.29858 C201.16471 132.05095 204.61198 133.88821 208 136 C214.26941 139.90296 220.62895 143.40963 227.26538 146.63965 C233.02974 149.45312 233.02974 149.45312 235 151 C235 151.66 235 152.32 235 153 C235.80437 153.14437 236.60875 153.28875 237.4375 153.4375 C240 154 240 154 241 155 C241.14017 157.3381 241.04262 159.65608 241 162 C234.32311 162.43495 229.77142 161.0892 223.6875 158.4375 C221.90335 157.69029 220.11817 156.94555 218.33203 156.20312 C217.43694 155.82865 216.54185 155.45418 215.61963 155.06836 C211.74631 153.48871 207.81478 152.0908 203.875 150.6875 C195.35337 147.60619 187.02849 144.11388 178.698 140.55298 C169.96448 136.82083 161.20244 133.16218 152.42068 129.54495 C150.95546 128.94136 149.49051 128.33711 148.02585 127.73215 C141.06266 124.85654 134.09454 122.00759 127.05469 119.32422 C121.96628 117.38443 116.94184 115.33342 111.9375 113.1875 C103.56444 109.62944 95.13807 106.21877 86.68359 102.85938 C85.9216 102.55451 85.1596 102.24965 84.37451 101.93555 C82.71058 101.27996 81.03961 100.6421 79.36377 100.01758 C78.92799 99.85226 78.92799 99.85226 76.72266 99.01562 C75.9377 98.72462 75.15274 98.43361 74.34399 98.13379 C69.47048 95.77647 66.20866 92.23988 62.93579 88.0127 C57.74688 81.48628 51.93736 75.66513 46.02734 69.79688 C44.89315 68.66388 43.75934 67.53051 42.62587 66.39679 C40.26823 64.0407 37.90732 61.68797 35.5437 59.33789 C32.53415 56.34538 29.53128 53.34628 26.53062 50.34486 C24.19645 48.01097 21.85967 45.6797 19.52204 43.34928 C18.41441 42.24481 17.30736 41.13976 16.20094 40.03408 C10.82736 34.66812 5.47997 29.3624 -0.37328 24.51154 C-2 23 -2 23 -3.59438 20.84637 C-5 19 -5 19 -6.9375 18.4375 C-9 19 -9 19 -10.83984 21.30859 C-12.94202 23.92776 -14.93819 25.63833 -17.625 27.625 C-20.99204 30.22369 -23.75383 32.75918 -26.45752 36.02954 C-32.25912 43.02616 -38.97186 46.82771 -46.98486 50.9502 C-50.09939 52.57274 -53.14339 54.31232 -56.1875 56.0625 C-56.7617 56.39032 -57.33589 56.71815 -57.92749 57.05591 C-62.31147 59.57037 -66.61819 62.19791 -70.90845 64.86841 C-75.26911 67.57469 -79.69012 70.16761 -84.125 72.75 C-106.20279 85.65439 -127.56035 99.85817 -148.1875 114.96875 C-151.26272 117.18974 -154.37481 119.35026 -157.5 121.5 C-162.32811 124.82429 -167.09678 128.2168 -171.82422 131.68359 C-174.39783 133.56816 -176.98843 135.42821 -179.58203 137.28516 C-180.39197 137.8662 -181.2019 138.44725 -182.03638 139.0459 C-183.6545 140.20621 -185.27408 141.36448 -186.89526 142.52051 C-187.64139 143.05644 -188.38751 143.59236 -189.15625 144.14453 C-189.82463 144.62253 -190.49301 145.10053 -191.18164 145.59302 C-192.93931 146.95304 -194.43395 148.42849 -196 150 C-196.74637 150.44602 -197.49273 150.89203 -198.26172 151.35156 C-201.69224 153.41673 -204.7014 155.86376 -207.8125 158.375 C-212.20597 161.88072 -216.56771 165.17215 -221.41797 168.03125 C-223 169 -223 169 -225.375 170.9375 C-228.6943 173.54552 -232.24983 175.60308 -235.89062 177.73047 C-238 179 -238 179 -239 180 C-241.3381 180.14017 -243.65608 180.04262 -246 180 C-246.62609 172.83478 -246.62609 172.83478 -244.125 169.5 C-242 168 -242 168 -240 168 C-240 167.34 -240 166.68 -240 166 C-238.51262 164.64618 -236.95569 163.3686 -235.375 162.125 C-234.35672 161.31419 -233.33986 160.5016 -232.32422 159.6875 C-232.05311 159.47029 -232.05311 159.47029 -230.68115 158.37109 C-227.79621 156.01823 -224.99834 153.56542 -222.1875 151.125 C-215.30505 145.18008 -208.19552 139.55903 -201 134 C-183.61872 120.51406 -183.61872 120.51406 -177.6875 115.125 C-171.54208 109.59521 -164.90519 104.69837 -158.30908 99.7251 C-156.64087 98.46606 -154.97559 97.2033 -153.3125 95.9375 C-152.76521 95.52113 -152.21792 95.10477 -151.65405 94.67578 C-148.36991 92.1461 -145.32073 89.48385 -142.3125 86.625 C-132.24169 77.37295 -120.0644 70.43312 -108.17188 63.79297 C-99.32553 58.83762 -91.13083 53.02911 -83 47 C-91.3149 50.24842 -99.13455 54.04466 -106.9574 58.33078 C-110.02718 60.01195 -113.10775 61.67313 -116.1875 63.33594 C-116.78617 63.65967 -117.38484 63.9834 -118.00165 64.31694 C-124.30652 67.71934 -130.69682 70.93397 -137.13184 74.08203 C-140.72309 75.84668 -144.29751 77.64516 -147.875 79.4375 C-149.20567 80.10299 -150.53639 80.76836 -151.86719 81.43359 C-152.42519 81.7126 -152.98319 81.9916 -153.55811 82.27905 C-157.62012 84.31006 -160.42793 84.07374 -165 84 C-165 81.36 -165 78.72 -165 76 C-164.34 76 -163.68 76 -163 76 C-163 75.34 -163 74.68 -163 74 C-161.35449 72.53882 -161.35449 72.53882 -159.04688 70.83984 C-158.206 70.21553 -157.36513 69.59123 -156.49878 68.948 C-155.59168 68.28453 -154.68458 67.62107 -153.75 66.9375 C-151.89706 65.56781 -150.0442 64.19802 -148.19141 62.82812 C-147.2918 62.16619 -146.3922 61.50426 -145.46533 60.82227 C-142.97854 58.98414 -140.51674 57.11691 -138.06152 55.23706 C-131.97835 50.59037 -125.64798 46.3617 -119.25 42.16406 C-117.44266 40.97647 -115.71545 39.78103 -114 38.46094 C-112.33463 37.24444 -110.73016 36.25076 -108.9375 35.24609 C-103.83506 32.38345 -98.93138 29.20758 -94 26.0625 C-93.04094 25.45471 -92.08187 24.84691 -91.09375 24.2207 C-87.051 21.64678 -83.03567 19.07111 -79.16016 16.25 C-76.3695 14.21994 -73.50047 12.53809 -70.4375 10.9375 C-67.37973 9.3253 -64.54522 7.73801 -61.8125 5.625 C-58.1066 3.48381 -55.17725 3.61832 -51 4 C-50.14351 9.67425 -50.94727 12.51319 -54.3125 17.1875 C-58.11084 22.14239 -62.2053 26.88919 -66.31763 31.58472 C-68.64514 34.2635 -70.61128 36.68782 -72 40 C-71.59797 39.72849 -71.19595 39.45698 -70.78174 39.17725 C-63.67567 34.38648 -56.5752 29.63905 -49.1875 25.28906 C-45.74773 23.26206 -42.37528 21.13208 -39 19 C-38.57268 18.73252 -38.57268 18.73252 -36.41016 17.37891 C-31.81378 14.48441 -27.29552 11.53252 -22.875 8.375 C-7.11391 -2.65527 -7.11391 -2.65527 0 0 Z " fill="#C9A84C"/></g>
<g transform="translate(506.7500,710.0000)"><path d="M0 0 C1.32211 0.31453 2.64429 0.62873 3.96655 0.94263 C13.75598 3.29017 23.4473 5.95046 33.12903 8.70416 C41.95 11.20689 50.7721 13.28048 59.82056 14.80933 C63.87157 15.49668 67.4874 16.25524 71.25 18 C71.25 20.31 71.25 22.62 71.25 25 C68.09167 25.93486 65.28866 26.11128 62.00098 26.08179 C60.95178 26.07526 59.90258 26.06873 58.82159 26.062 C58.25548 26.05628 58.25548 26.05628 55.39062 26.02734 C54.20156 26.02038 53.0125 26.01418 51.82343 26.00868 C46.79414 25.9844 41.76498 25.94939 36.73584 25.90405 C10.98621 25.67984 10.98621 25.67984 -0.59009 27.55859 C-3.94351 28.02703 -7.05519 28.07955 -10.4375 28.0625 C-17.3459 28.36094 -23.01878 30.95514 -29.2439 33.78857 C-38.84843 38.14643 -48.65234 41.91843 -58.5 45.6875 C-60.15098 46.32303 -61.80194 46.9586 -63.45288 47.59424 C-71.9831 50.86676 -80.53818 54.04168 -89.17438 57.0247 C-93.0352 58.36369 -96.80884 59.81473 -100.5625 61.4375 C-106.40754 63.93687 -112.37495 65.98656 -118.38599 68.04907 C-127.06413 71.05438 -135.617 74.36654 -144.16846 77.71167 C-144.69754 77.9178 -144.69754 77.9178 -147.375 78.96094 C-148.31602 79.33009 -149.25703 79.69925 -150.22656 80.07959 C-154.31057 81.56921 -157.64873 82.11975 -162 82.0625 C-162.44602 82.05799 -162.44602 82.05799 -164.70312 82.03516 C-165.37859 82.02355 -166.05406 82.01195 -166.75 82 C-166.75 79.69 -166.75 77.38 -166.75 75 C-155.74902 68.10749 -144.20218 62.16811 -132.5625 56.4375 C-127.44976 53.91429 -122.491 51.19523 -117.56177 48.33179 C-112.01303 45.1188 -106.38562 42.05747 -100.75 39 C-94.63485 35.67895 -88.52999 32.34866 -82.5 28.875 C-71.28508 22.41772 -60.04305 16.05556 -48.41797 10.36328 C-44.88499 8.558 -41.51942 6.52306 -38.13672 4.45312 C-35.73665 2.99187 -33.31858 1.57472 -30.875 0.1875 C-30.52566 -0.01166 -30.52566 -0.01166 -28.75781 -1.01953 C-19.59573 -5.49362 -9.34503 -2.27994 0 0 Z " fill="#C9A84C"/></g>
<g transform="translate(705.9875,642.9576)"><path d="M0 0 C2.50939 -0.03433 5.01863 -0.05867 7.52817 -0.07867 C7.8723 -0.08414 7.8723 -0.08414 9.61385 -0.11177 C16.24876 -0.1383 21.90571 1.65231 28.01254 4.04242 C29.60062 4.64391 31.1892 5.24407 32.77817 5.8432 C36.36888 7.20343 39.95335 8.57902 43.53598 9.96039 C54.16251 14.03145 64.93208 17.71425 75.74496 21.25702 C84.06263 23.98383 92.2365 26.99163 100.40024 30.14935 C105.46364 32.09933 110.53632 33.93947 115.70004 35.60492 C121.96047 37.62585 128.06421 39.9689 134.18124 42.38641 C139.25617 44.38363 144.35975 46.25637 149.51254 48.04242 C156.15538 50.34684 162.70525 52.84174 169.24472 55.42377 C175.3758 57.83061 181.56407 60.04515 187.79575 62.17719 C192.91155 63.94142 192.91155 63.94142 194.01254 65.04242 C194.08498 67.06206 194.09631 69.08409 194.07504 71.10492 C194.06602 72.20965 194.057 73.31437 194.0477 74.45258 C194.0419 74.8799 194.0419 74.8799 194.01254 77.04242 C187.54828 77.35593 182.30492 76.29212 176.13754 74.41742 C175.68089 74.28316 175.68089 74.28316 173.36996 73.6037 C166.61663 71.5942 159.94333 69.37301 153.27866 67.08954 C147.96766 65.29354 142.69794 63.90319 137.20004 62.7807 C133.74379 61.98017 130.38634 60.98496 126.99399 59.95038 C123.57543 58.9093 120.15037 57.89159 116.72348 56.87836 C116.06357 56.68322 115.40365 56.48808 114.72374 56.28703 C112.61188 55.66312 110.49977 55.04006 108.38754 54.41742 C107.65676 54.20198 106.92597 53.98655 106.17303 53.76459 C91.21925 49.36126 76.22196 45.11971 61.20517 40.93695 C55.88829 39.44723 50.58535 37.91937 45.2944 36.34004 C35.41685 33.40026 25.48232 30.71237 15.51254 28.10492 C14.6896 27.88898 13.86665 27.67304 13.01877 27.45056 C-0.94005 23.79041 -14.92433 20.28196 -28.98746 17.04242 C-29.84227 16.84423 -30.69708 16.64603 -31.57779 16.44183 C-39.88877 14.5223 -48.15182 12.71463 -56.60464 11.53461 C-59.01835 11.03604 -60.84794 10.24652 -62.98746 9.04242 C-63.08511 3.67133 -63.08511 3.67133 -62.98746 2.04242 C-61.28357 0.33853 -59.07558 0.87365 -56.74356 0.8371 C-55.62051 0.81715 -54.49746 0.79721 -53.34038 0.77666 C-52.09904 0.75963 -50.8577 0.74276 -49.61636 0.72601 C-48.33811 0.70541 -47.05987 0.68441 -45.78163 0.66304 C-43.08555 0.61896 -40.38944 0.57809 -37.69327 0.53973 C-34.29214 0.49132 -30.89113 0.43759 -27.49012 0.38179 C-20.44477 0.26631 -13.39937 0.16631 -6.35358 0.08289 C-4.23569 0.05743 -2.11783 0.03007 0 0 Z " fill="#C9A84C"/></g>
<g transform="translate(549.0000,163.0000)"><path d="M0 0 C5.07812 -0.48828 5.07812 -0.48828 7 0 C11.46613 4.41922 14.07536 10.384 17 15.875 C17.57513 16.94796 18.15049 18.02079 18.72607 19.09351 C20.2055 21.85557 21.67703 24.62175 23.14539 27.38971 C23.96165 28.92775 24.78009 30.46464 25.59863 32.00146 C33.12446 46.1549 40.17687 60.49631 47 75 C48.60258 78.39659 50.20731 81.79215 51.8125 85.1875 C52.18182 85.97052 52.55113 86.75355 52.93164 87.5603 C54.95739 91.84388 57.03731 96.0901 59.1875 100.3125 C61.33604 104.56781 63.30831 108.87107 65.1875 113.25 C65.42557 113.8047 65.66365 114.3594 65.90894 114.93091 C66.62099 116.61482 67.31147 118.30633 68 120 C68.24582 120.59193 68.49165 121.18385 68.74492 121.79372 C70.65583 126.59465 71.69668 131.14809 72.35156 136.26172 C72.45593 137.0154 72.56029 137.76909 72.66782 138.54561 C72.9956 140.92515 73.31074 143.30614 73.625 145.6875 C73.94913 148.07913 74.27585 150.47039 74.60361 152.86153 C74.80555 154.34146 75.00492 155.82174 75.20132 157.30241 C75.68348 160.90225 76.2826 164.43817 77 168 C77.06459 169.76978 77.08611 171.5417 77.0625 173.3125 C77.05348 174.19551 77.04445 175.07852 77.03516 175.98828 C77.02355 176.65215 77.01195 177.31602 77 178 C74.36 178 71.72 178 69 178 C65.29747 169.48418 61.93017 160.83988 58.5625 152.1875 C58.25731 151.40496 57.95213 150.62242 57.6377 149.81616 C56.29524 146.36654 54.96024 142.91599 53.68359 139.44141 C51.64089 133.93351 49.39896 128.70005 46.6875 123.5 C42.38415 115.20396 39.28354 106.47615 36.0293 97.72998 C30.9722 84.31716 25.68137 70.86973 19.625 57.875 C17.03291 52.24251 14.817 46.48409 12.59082 40.70044 C6.6056 25.15813 6.6056 25.15813 3.58203 19.21094 C0.24511 12.57449 -0.64496 7.40984 0 0 Z " fill="#C9A84C"/></g>
<g transform="translate(630.0000,386.0000)"><path d="M0 0 C2.97 0 5.94 0 9 0 C9 0.66 9 1.32 9 2 C9.58322 2.27385 10.16644 2.54769 10.76733 2.82983 C12.94669 3.97206 14.77336 5.22637 16.72266 6.72266 C17.42109 7.25713 18.11952 7.79161 18.83911 8.34229 C19.20597 8.62612 19.20597 8.62612 21.0625 10.0625 C21.81749 10.64306 22.57248 11.22362 23.35034 11.82178 C28.57681 15.85654 33.72541 19.97248 38.80078 24.19531 C41 26 41 26 43.29297 27.61719 C43.85629 28.07352 44.41961 28.52984 45 29 C45 29.66 45 30.32 45 31 C45.58137 31.26555 46.16273 31.53109 46.76172 31.80469 C56.44919 36.9781 63.41131 47.13403 70.00781 55.60547 C72 58 72 58 74.44141 60.38281 C77.31841 63.20432 79.55095 66.36479 81.8125 69.6875 C82.2192 70.26822 82.6259 70.84895 83.04492 71.44727 C86 75.7433 86 75.7433 86 78 C86.495 78.165 86.495 78.165 89 79 C89.92515 80.57618 90.83717 82.16144 91.68359 83.78125 C93.00234 86.00394 94.52391 87.95599 96.13818 89.96973 C99.83939 94.64784 101.89418 98.15891 101.37891 104.32031 C101 106 101 106 100 107 C93.46704 107.51239 89.41477 105.98025 84.35156 101.82812 C83.43598 100.97592 82.52749 100.11605 81.625 99.25 C81.11445 98.77031 80.6039 98.29062 80.07788 97.79639 C78.96496 96.75004 77.85461 95.70094 76.74658 94.64941 C74.97763 92.97888 73.19248 91.32748 71.40234 89.67969 C62.49268 81.44866 53.87172 72.95757 45.35767 64.3208 C40.41493 59.32038 35.3429 54.56968 30 50 C27.71998 47.93795 25.44485 45.87097 23.17578 43.79688 C21 42 21 42 18.36719 40.64844 C15.30999 38.5195 14.75171 36.30676 13.8125 32.875 C11.12528 24.25022 6.47233 13.47233 0 7 C-0.14017 4.6619 -0.04262 2.34392 0 0 Z " fill="#C9A84C"/></g>
<g transform="translate(598.0000,483.0000)"><path d="M0 0 C4.55526 -0.17864 7.87221 -0.17856 12 2 C12.46358 2.47035 12.92716 2.94069 13.40479 3.42529 C15.09049 5.08933 16.7376 6.17852 18.77344 7.38281 C19.50957 7.82343 20.24571 8.26405 21.00415 8.71802 C21.78653 9.18232 22.56891 9.64663 23.375 10.125 C30.15108 14.20177 36.72783 18.45189 43.18359 23.01562 C45.63746 24.74456 48.1155 26.41605 50.625 28.0625 C55.34656 31.19021 59.89836 34.53815 64.46826 37.88184 C72.14911 43.48883 79.89346 48.98359 87.8125 54.25 C88.44011 54.66758 89.06772 55.08515 89.71436 55.51538 C92.43287 57.31801 95.15965 59.10179 97.91016 60.85547 C98.72355 61.37754 99.53695 61.89961 100.375 62.4375 C101.06336 62.86934 101.75172 63.30117 102.46094 63.74609 C104 65 104 65 105 68 C106.32432 68.36753 107.66048 68.69246 109 69 C110.97406 70.10007 112.85564 71.21686 114.75 72.4375 C115.2566 72.7501 115.7632 73.0627 116.28516 73.38477 C117.56212 74.19879 118.78651 75.09407 120 76 C120 76.66 120 77.32 120 78 C120.68062 78.20625 121.36125 78.4125 122.0625 78.625 C125.98091 80.45915 129.27739 82.59289 132 86 C132.59491 88.60405 132.37738 90.3044 132 93 C125.01392 93.57224 120.95071 91.93311 114.9375 88.5 C114.10823 88.04512 113.27896 87.59024 112.42456 87.12158 C110.7381 86.19598 109.05518 85.2639 107.37598 84.3252 C104.04357 82.46655 100.68084 80.66743 97.3125 78.875 C97.01424 78.71528 97.01424 78.71528 95.50488 77.90698 C87.47177 73.62056 79.30626 69.58473 71.12109 65.59766 C67.08478 63.62056 63.20012 61.5497 59.375 59.1875 C55.03272 56.52323 50.5671 54.24431 46 52 C34.6284 46.34853 26.1401 40.81619 18 31 C17.61457 30.539 17.22914 30.078 16.83203 29.60303 C14.94572 27.3409 13.08537 25.06144 11.25 22.75781 C9.70797 20.83438 8.10433 18.99587 6.4375 17.17969 C-0.5625 9.41103 -0.5625 9.41103 -0.5625 3.8125 C-0.31641 1.58203 -0.31641 1.58203 0 0 Z " fill="#C9A84C"/></g>
<g transform="translate(305.0000,616.0000)"><path d="M0 0 C2.14482 0.50441 3.9613 1.1416 6 2 C6.85903 8.72906 5.62115 12.63439 1.57422 18.05859 C-1.74005 22.14591 -4.12311 24.08034 -9.00464 26.12109 C-12.49829 27.65996 -15.8299 29.5002 -19.1875 31.3125 C-23.98941 33.88247 -28.79285 36.42209 -33.6875 38.8125 C-38.33895 41.10662 -42.87327 43.57264 -47.40894 46.08765 C-56.0921 50.89196 -64.83173 55.56268 -73.73721 59.94159 C-74.81705 60.47459 -75.89426 61.01294 -76.9686 61.55695 C-83.23325 64.71969 -87.94042 66.70764 -95 66 C-95.30082 63.39286 -95.51525 61.52694 -95 59 C-92.5 56.9375 -92.5 56.9375 -90.8125 56.00781 C-88.87394 54.92991 -87.24089 53.6857 -85.5 52.3125 C-81.24359 49.0835 -76.77173 46.2447 -72.2666 43.38135 C-68.05985 40.70097 -63.96255 37.90304 -59.89453 35.01562 C-52.28005 29.66445 -44.45083 24.60795 -36.69067 19.47144 C-32.0106 16.36612 -27.38148 13.20403 -22.8125 9.9375 C-22.23564 9.52951 -21.65879 9.12152 -21.06445 8.70117 C-18.20045 6.6573 -15.50343 4.57262 -12.88672 2.21875 C-8.89028 -1.15707 -4.99632 -0.63869 0 0 Z " fill="#C9A84C"/></g>
<g transform="translate(347.0000,200.0000)"><path d="M0 0 C1 1 1 1 1.3125 4.375 C1.27736 7.23269 1.26045 7.73057 -0.8125 9.875 C-4.42609 11.73342 -7.18236 12.11451 -11.1875 12.0625 C-11.63803 12.05799 -11.63803 12.05799 -13.91797 12.03516 C-14.60504 12.02355 -15.29211 12.01195 -16 12 C-16 9.03 -16 6.06 -16 3 C-10.5728 0.22866 -6.10247 -0.68096 0 0 Z " fill="#C9A84C"/></g>
<g transform="translate(423.0000,630.0000)"><path d="M0 0 C0 3.54404 -0.60989 4.10268 -2.875 6.6875 C-3.40867 7.31012 -3.94234 7.93273 -4.49219 8.57422 C-6 10 -6 10 -8 10 C-8.1302 10.29971 -8.1302 10.29971 -8.78906 11.81641 C-10.08284 14.14938 -11.29469 15.29778 -13.375 16.9375 C-15.63506 18.78408 -17.55959 20.53999 -19.3125 22.875 C-19.86937 23.57625 -20.42625 24.2775 -21 25 C-21.66 25 -22.32 25 -23 25 C-23.21141 25.54914 -23.42281 26.09828 -23.64062 26.66406 C-25.49957 29.85845 -27.99247 31.9515 -30.75 34.375 C-31.83424 35.34664 -32.91759 36.31929 -34 37.29297 C-34.5182 37.75751 -35.03641 38.22206 -35.57031 38.70068 C-38.14478 41.04039 -40.5748 43.50743 -43 46 C-43.66 45.67 -44.32 45.34 -45 45 C-33.76953 33.76953 -33.76953 33.76953 -31.80859 31.80884 C-30.70149 30.70159 -29.59465 29.59407 -28.48828 28.48608 C-26.46229 26.45745 -24.42656 24.44021 -22.375 22.4375 C-20 20 -20 20 -18.3125 17.6875 C-17.87937 17.13063 -17.44625 16.57375 -17 16 C-16.34 16 -15.68 16 -15 16 C-14.67 15.01 -14.34 14.02 -14 13 C-13.34 13 -12.68 13 -12 13 C-12 12.34 -12 11.68 -12 11 C-10.39062 9.41406 -10.39062 9.41406 -8.25 7.625 C-5.37563 5.18382 -2.61456 2.7235 0 0 Z " fill="#C9A84C"/></g>
<g transform="translate(466.0000,590.0000)"><path d="M0 0 C0 0.66 0 1.32 0 2 C-0.99 2 -1.98 2 -3 2 C-3.25056 2.57581 -3.50112 3.15162 -3.75928 3.74487 C-5.16857 6.30639 -6.77909 8.02185 -8.85156 10.08203 C-9.23635 10.46585 -9.23635 10.46585 -11.18359 12.4082 C-11.98926 13.20162 -12.79492 13.99504 -13.625 14.8125 C-14.40746 15.59432 -15.18992 16.37613 -15.99609 17.18164 C-20.30118 21.4546 -24.69873 25.55682 -29.29443 29.51489 C-31.28052 31.24426 -33.15738 33.05649 -35 34.9375 C-35.28875 35.23076 -35.28875 35.23076 -36.75 36.71484 C-36.95625 36.92689 -36.95625 36.92689 -38 38 C-38.66 37.67 -39.32 37.34 -40 37 C-39.55608 36.56132 -39.11216 36.12263 -38.65479 35.67065 C-36.64223 33.6789 -34.63358 31.68326 -32.625 29.6875 C-31.92633 28.99721 -31.22766 28.30691 -30.50781 27.5957 C-30.17266 27.26216 -30.17266 27.26216 -28.47656 25.57422 C-27.85862 24.96151 -27.24067 24.3488 -26.604 23.71753 C-25 22 -25 22 -23.90771 20.27661 C-23.60817 19.85533 -23.30862 19.43405 -23 19 C-22.34 19 -21.68 19 -21 19 C-20.78988 18.46504 -20.57977 17.93008 -20.36328 17.37891 C-18.45706 14.05257 -15.90541 11.61597 -13.1875 8.9375 C-12.66607 8.40834 -12.14465 7.87918 -11.60742 7.33398 C-4.23663 0 -4.23663 0 0 0 Z " fill="#C9A84C"/></g>
<g transform="translate(479.9727,61.9023)"><path d="M0 0 C0.80852 0.00141 1.61704 0.00283 2.45006 0.00429 C4.99669 0.00982 7.54324 0.02236 10.08984 0.03516 C11.83138 0.04018 13.57292 0.04474 15.31445 0.04883 C19.55212 0.05977 23.78972 0.07699 28.02734 0.09766 C28.0813 1.72229 28.12012 3.34744 28.15234 4.97266 C28.17555 5.87758 28.19875 6.7825 28.22266 7.71484 C28.02734 10.09766 28.02734 10.09766 26.02734 12.09766 C26.02734 8.79766 26.02734 5.49766 26.02734 2.09766 C11.50734 2.09766 -3.01266 2.09766 -17.97266 2.09766 C-17.97266 1.76766 -17.97266 1.43766 -17.97266 1.09766 C-11.95319 0.31372 -6.06743 -0.04105 0 0 Z " fill="#C9A84C"/></g>
<g transform="translate(451.8477,200.9023)"><path d="M0 0 C0.36545 0.0058 0.36545 0.0058 2.21484 0.03516 C2.94832 0.04418 3.6818 0.0532 4.4375 0.0625 C5.0034 0.0741 5.5693 0.0857 6.15234 0.09766 C6.27271 5.87526 5.9844 11.37726 5.15234 17.09766 C4.82234 17.09766 4.49234 17.09766 4.15234 17.09766 C4.15234 12.14766 4.15234 7.19766 4.15234 2.09766 C2.17234 2.09766 0.19234 2.09766 -1.84766 2.09766 C-2.50766 7.37766 -3.16766 12.65766 -3.84766 18.09766 C-4.50766 18.09766 -5.16766 18.09766 -5.84766 18.09766 C-4.48204 0.23689 -4.48204 0.23689 0 0 Z " fill="#C9A84C"/></g>
<g transform="translate(227.7305,604.7695)"><path d="M0 0 C0.72123 0.00193 1.44246 0.00387 2.18555 0.00586 C2.56034 0.01198 2.56034 0.01198 4.45703 0.04297 C5.18729 0.04361 5.91754 0.04426 6.66992 0.04492 C11.60967 0.0843 16.37906 0.53816 21.26953 1.23047 C21.26953 1.56047 21.26953 1.89047 21.26953 2.23047 C20.8862 2.23252 20.8862 2.23252 18.94629 2.24292 C16.09021 2.26996 13.23626 2.31909 10.38086 2.38306 C9.14727 2.40619 7.91348 2.42062 6.67969 2.42603 C4.90111 2.43535 3.12559 2.47639 1.34766 2.52344 C0.27935 2.53915 -0.78896 2.55486 -1.88965 2.57104 C-5.61839 3.43658 -6.66821 5.10444 -8.73047 8.23047 C-9.72047 7.90047 -10.71047 7.57047 -11.73047 7.23047 C-4.66139 -0.02967 -4.66139 -0.02967 0 0 Z " fill="#C9A84C"/></g>
<g transform="translate(617.0000,103.0000)"><path d="M0 0 C4.875 0.875 4.875 0.875 6 2 C6.14017 4.3381 6.04262 6.65608 6 9 C-1.30562 9.22251 -7.94362 8.99574 -15 7 C-15 6.67 -15 6.34 -15 6 C-8.59471 5.86075 -2.36186 6.25623 4 7 C4 5.35 4 3.7 4 2 C2.68 2 1.36 2 0 2 C0 1.34 0 0.68 0 0 Z " fill="#C9A84C"/></g>
<g transform="translate(379.0000,525.0000)"><path d="M0 0 C0.66 0.33 1.32 0.66 2 1 C1.53626 1.4585 1.07252 1.91701 0.59473 2.3894 C-1.52286 4.48609 -3.63645 6.58675 -5.75 8.6875 C-6.47961 9.40873 -7.20922 10.12996 -7.96094 10.87305 C-14.02882 16.91335 -14.02882 16.91335 -16.375 19.96875 C-18 22 -18 22 -20.25 22.8125 C-20.8275 22.87437 -21.405 22.93625 -22 23 C-19.90724 18.68368 -17.05015 16.17932 -13.40625 13.11328 C-8.70719 8.98634 -4.38401 4.45654 0 0 Z " fill="#C9A84C"/></g>
<g transform="translate(269.0000,704.0000)"><path d="M0 0 C0 0.66 0 1.32 0 2 C-1.11117 2.19336 -2.22234 2.38672 -3.36719 2.58594 C-11.26416 3.96615 -19.15164 5.36091 -27 7 C-26.67 6.01 -26.34 5.02 -26 4 C-22.60564 3.3257 -19.2093 2.66192 -15.8125 2 C-15.33265 1.90461 -15.33265 1.90461 -12.9043 1.42188 C-11.97295 1.24141 -11.0416 1.06094 -10.08203 0.875 C-9.65523 0.79121 -9.65523 0.79121 -7.49536 0.36719 C-4.95955 -0.00595 -2.55919 -0.06413 0 0 Z " fill="#C9A84C"/></g>
<g transform="translate(335.0000,201.0000)"><path d="M0 0 C0.99 0.33 1.98 0.66 3 1 C1.35 1.33 -0.3 1.66 -2 2 C-2 4.31 -2 6.62 -2 9 C0.145 8.835 0.145 8.835 11 8 C8.57418 10.42582 6.92566 10.96356 3.51953 11.09766 C2.62621 11.08605 1.73289 11.07445 0.8125 11.0625 C0.36197 11.05799 0.36197 11.05799 -1.91797 11.03516 C-2.60504 11.02355 -3.29211 11.01195 -4 11 C-4 8.03 -4 5.06 -4 2 C-2.68 1.34 -1.36 0.68 0 0 Z " fill="#C9A84C"/></g>
<g transform="translate(893.0000,706.0000)"><path d="M0 0 C5.875 0.875 5.875 0.875 7 2 C7.07244 4.01964 7.08377 6.04167 7.0625 8.0625 C7.05348 9.16723 7.04445 10.27195 7.03516 11.41016 C7.02355 12.2648 7.01195 13.11945 7 14 C5.72964 14.05431 4.45861 14.09294 3.1875 14.125 C2.4798 14.1482 1.77211 14.17141 1.04297 14.19531 C-1 14 -1 14 -4 12 C-1.03 12 1.94 12 5 12 C5 8.7 5 5.4 5 2 C3.35 2 1.7 2 0 2 C0 1.34 0 0.68 0 0 Z " fill="#C9A84C"/></g>
<g transform="translate(306.0000,98.0000)"><path d="M0 0 C0.99 0.33 1.98 0.66 3 1 C-1.21507 6.25287 -5.83396 10.68622 -11 15 C-11.66 14.67 -12.32 14.34 -13 14 C-8.71 9.38 -4.42 4.76 0 0 Z " fill="#C9A84C"/></g>
<g transform="translate(595.0000,675.0000)"><path d="M0 0 C0.825 0.33 0.825 0.33 5 2 C5 4.64 5 7.28 5 10 C3.58431 10.08167 2.16723 10.1395 0.75 10.1875 C-0.03891 10.2223 -0.82781 10.25711 -1.64062 10.29297 C-4 10 -4 10 -8 7 C-4.37 7.33 -0.74 7.66 3 8 C3 6.35 3 4.7 3 3 C2.34 3 1.68 3 1 3 C0.67 2.01 0.34 1.02 0 0 Z " fill="#C9A84C"/></g>
<g transform="translate(340.0000,785.0000)"><path d="M0 0 C0.66 0 1.32 0 2 0 C2 1.65 2 3.3 2 5 C6.62 4.67 11.24 4.34 16 4 C13.26569 6.73431 11.23006 6.95341 7.42188 7.09766 C6.54016 7.08605 5.65844 7.07445 4.75 7.0625 C3.85797 7.05348 2.96594 7.04445 2.04688 7.03516 C1.37141 7.02355 0.69594 7.01195 0 7 C0 4.69 0 2.38 0 0 Z " fill="#C9A84C"/></g>
<g transform="translate(728.0000,480.0000)"><path d="M0 0 C3 3 3 3 3.32812 5.22656 C3.30234 6.01805 3.27656 6.80953 3.25 7.625 C3.23453 8.42164 3.21906 9.21828 3.20312 10.03906 C3 12 3 12 2 13 C-4.46154 13.35897 -4.46154 13.35897 -8 11 C-5.03 11 -2.06 11 1 11 C0.67 7.37 0.34 3.74 0 0 Z " fill="#C9A84C"/></g>
<g transform="translate(239.0000,355.0000)"><path d="M0 0 C0 0.66 0 1.32 0 2 C-0.7425 2.2475 -1.485 2.495 -2.25 2.75 C-6.67354 4.7607 -9.10022 7.56719 -11 12 C-12 9 -12 9 -10.8125 6 C-8.19331 1.23568 -5.5046 -0.45872 0 0 Z " fill="#C9A84C"/></g>
<g transform="translate(549.0000,163.0000)"><path d="M0 0 C4.75648 -0.26425 4.75648 -0.26425 7 0 C8.4375 1.5 8.4375 1.5 9 3 C6.69 2.67 4.38 2.34 2 2 C2 5.63 2 9.26 2 13 C0 11 0 11 -0.19531 8.39844 C-0.17211 7.4007 -0.14891 6.40297 -0.125 5.375 C-0.10695 4.37211 -0.08891 3.36922 -0.07031 2.33594 C-0.04711 1.56508 -0.02391 0.79422 0 0 Z " fill="#C9A84C"/></g>
<g transform="translate(320.0000,642.0000)"><path d="M0 0 C0.66 0.33 1.32 0.66 2 1 C1.50629 1.37512 1.01258 1.75023 0.50391 2.13672 C-4.79417 6.36878 -4.79417 6.36878 -5.9375 9.875 C-5.95812 10.57625 -5.97875 11.2775 -6 12 C-4.02 12 -2.04 12 0 12 C0 12.33 0 12.66 0 13 C-2.31 13 -4.62 13 -7 13 C-7.62552 5.84122 -7.62552 5.84122 -5.1875 2.5625 C-3 1 -3 1 0 0 Z " fill="#C9A84C"/></g>
<g transform="translate(401.0000,545.0000)"><path d="M0 0 C0.66 0.33 1.32 0.66 2 1 C1.04883 2.17251 0.08883 3.33787 -0.875 4.5 C-1.40867 5.14969 -1.94234 5.79938 -2.49219 6.46875 C-2.98977 6.97406 -3.48734 7.47938 -4 8 C-4.66 8 -5.32 8 -6 8 C-6 9.65 -6 11.3 -6 13 C-3.69 13 -1.38 13 1 13 C1 13.33 1 13.66 1 14 C-1.64 14 -4.28 14 -7 14 C-7 11.36 -7 8.72 -7 6 C-6.34 6 -5.68 6 -5 6 C-5 5.34 -5 4.68 -5 4 C-3.37374 2.61768 -1.7075 1.28062 0 0 Z " fill="#C9A84C"/></g>
<g transform="translate(140.0000,680.0000)"><path d="M0 0 C0.66 0.33 1.32 0.66 2 1 C0.03579 2.96421 -1.92901 4.92773 -3.89844 6.88672 C-5.12823 8.12337 -6.34734 9.37115 -7.53906 10.64453 C-8.63928 11.81562 -9.81411 12.91576 -11 14 C-11.99 14 -12.98 14 -14 14 C-9.33333 9.33333 -4.66667 4.66667 0 0 Z " fill="#C9A84C"/></g>
<g transform="translate(598.0000,483.0000)"><path d="M0 0 C5.27344 -0.19531 5.27344 -0.19531 7 0 C7.66 0.66 8.32 1.32 9 2 C6.69 2 4.38 2 2 2 C2.33 4.97 2.66 7.94 3 11 C2.01 10.34 1.02 9.68 0 9 C-0.29297 6.83594 -0.29297 6.83594 -0.1875 4.375 C-0.16043 3.55773 -0.13336 2.74047 -0.10547 1.89844 C-0.08807 1.5852 -0.08807 1.5852 0 0 Z " fill="#C9A84C"/></g>
<g transform="translate(502.0430,478.7070)"><path d="M0 0 C1.98568 0.09766 3.97135 0.19531 5.95703 0.29297 C5.95703 2.93297 5.95703 5.57297 5.95703 8.29297 C5.62703 8.45797 5.62703 8.45797 3.95703 9.29297 C3.95703 6.98297 3.95703 4.67297 3.95703 2.29297 C2.47203 2.45797 2.47203 2.45797 -5.04297 3.29297 C-2.04297 0.29297 -2.04297 0.29297 0 0 Z " fill="#C9A84C"/></g>
<g transform="translate(412.1875,626.8750)"><path d="M0 0 C0.62906 0.02062 0.62906 0.02062 3.8125 0.125 C3.8125 2.765 3.8125 5.405 3.8125 8.125 C3.1525 8.125 2.4925 8.125 1.8125 8.125 C1.8125 6.145 1.8125 4.165 1.8125 2.125 C-1.1575 2.125 -4.1275 2.125 -7.1875 2.125 C-4.09861 0.06574 -3.47814 -0.11404 0 0 Z " fill="#C9A84C"/></g>
<g transform="translate(351.0000,552.0000)"><path d="M0 0 C0.66 0.33 1.32 0.66 2 1 C0.78258 2.46815 -0.44949 3.92417 -1.6875 5.375 C-2.37199 6.18711 -3.05648 6.99922 -3.76172 7.83594 C-6.09861 10.09534 -7.93027 11.02156 -11 12 C-8.01665 6.98797 -4.56048 3.61252 0 0 Z " fill="#C9A84C"/></g>
<g transform="translate(507.0000,421.0000)"><path d="M0 0 C0.66 0.33 1.32 0.66 2 1 C-0.64 3.97 -3.28 6.94 -6 10 C-6.99 9.67 -7.98 9.34 -9 9 C-6 6 -3 3 0 0 Z " fill="#C9A84C"/></g>
<g transform="translate(252.0000,708.0000)"><path d="M0 0 C0 0.33 0 0.66 0 1 C-3.3 1.66 -6.6 2.32 -10 3 C-9.67 2.01 -9.34 1.02 -9 0 C-5.52177 -1.15941 -3.54104 -0.70821 0 0 Z " fill="#C9A84C"/></g>
<g transform="translate(484.0000,515.0000)"><path d="M0 0 C0.66 0.99 1.32 1.98 2 3 C-2.43077 5.09231 -2.43077 5.09231 -5.3125 4.625 C-5.86937 4.41875 -6.42625 4.2125 -7 4 C-5.35 3.67 -3.7 3.34 -2 3 C-2 2.34 -2 1.68 -2 1 C-1.34 0.67 -0.68 0.34 0 0 Z " fill="#C9A84C"/></g>
<g transform="translate(543.0000,111.0000)"><path d="M0 0 C0.66 0 1.32 0 2 0 C2 1.98 2 3.96 2 6 C2.66 6 3.32 6 4 6 C4 6.66 4 7.32 4 8 C2.68 7.67 1.36 7.34 0 7 C0 4.69 0 2.38 0 0 Z " fill="#C9A84C"/></g>
</g>
</svg>